<?xml version="1.0" encoding="UTF-8" standalone="no"?>
<!-- Created with Inkscape (http://www.inkscape.org/) -->

<svg
   width="220mm"
   height="130mm"
   viewBox="0 0 220 130"
   version="1.1"
   id="svg1"
   inkscape:version="1.3 (0e150ed6c4, 2023-07-21)"
   sodipodi:docname="ar.svg"
   xmlns:inkscape="http://www.inkscape.org/namespaces/inkscape"
   xmlns:sodipodi="http://sodipodi.sourceforge.net/DTD/sodipodi-0.dtd"
   xmlns:xlink="http://www.w3.org/1999/xlink"
   xmlns="http://www.w3.org/2000/svg"
   xmlns:svg="http://www.w3.org/2000/svg">
  <sodipodi:namedview
     id="namedview1"
     pagecolor="#ffffff"
     bordercolor="#000000"
     borderopacity="0.25"
     inkscape:showpageshadow="2"
     inkscape:pageopacity="0.0"
     inkscape:pagecheckerboard="0"
     inkscape:deskcolor="#d1d1d1"
     inkscape:document-units="mm"
     inkscape:zoom="0.52738496"
     inkscape:cx="397.24303"
     inkscape:cy="561.25984"
     inkscape:window-width="1440"
     inkscape:window-height="788"
     inkscape:window-x="-6"
     inkscape:window-y="-6"
     inkscape:window-maximized="1"
     inkscape:current-layer="layer1" />
  <defs
     id="defs1">
    <clipPath
       id="SVGID_00000140712907754403136460000011851055371786153131_">&#10;				<use
   xlink:href="#SVGID_00000034063826353659036970000009264976324792381594_"
   style="overflow:visible"
   id="use128" />
&#10;			</clipPath>
    <clipPath
       id="clipPath1">&#10;				<use
   xlink:href="#SVGID_00000034063826353659036970000009264976324792381594_"
   style="overflow:visible"
   id="use1" />
&#10;			</clipPath>
    <clipPath
       id="clipPath2">&#10;				<use
   xlink:href="#SVGID_00000034063826353659036970000009264976324792381594_"
   style="overflow:visible"
   id="use2" />
&#10;			</clipPath>
    <clipPath
       id="clipPath3">&#10;				<use
   xlink:href="#SVGID_00000034063826353659036970000009264976324792381594_"
   style="overflow:visible"
   id="use3" />
&#10;			</clipPath>
    <clipPath
       id="SVGID_00000046332524945551117510000010314883869369053628_">&#10;					<use
   xlink:href="#SVGID_00000090992870479615493910000003472970011267099821_"
   style="overflow:visible"
   id="use130" />
&#10;				</clipPath>
    <clipPath
       id="clipPath4">&#10;					<use
   xlink:href="#SVGID_00000090992870479615493910000003472970011267099821_"
   style="overflow:visible"
   id="use4" />
&#10;				</clipPath>
    <clipPath
       id="clipPath5">&#10;					<use
   xlink:href="#SVGID_00000090992870479615493910000003472970011267099821_"
   style="overflow:visible"
   id="use5" />
&#10;				</clipPath>
    <clipPath
       id="clipPath6">&#10;					<use
   xlink:href="#SVGID_00000090992870479615493910000003472970011267099821_"
   style="overflow:visible"
   id="use6" />
&#10;				</clipPath>
    <clipPath
       id="clipPath7">&#10;					<use
   xlink:href="#SVGID_00000090992870479615493910000003472970011267099821_"
   style="overflow:visible"
   id="use7" />
&#10;				</clipPath>
    <clipPath
       id="clipPath8">&#10;					<use
   xlink:href="#SVGID_00000090992870479615493910000003472970011267099821_"
   style="overflow:visible"
   id="use8" />
&#10;				</clipPath>
    <clipPath
       id="clipPath9">&#10;					<use
   xlink:href="#SVGID_00000090992870479615493910000003472970011267099821_"
   style="overflow:visible"
   id="use9" />
&#10;				</clipPath>
    <rect
       id="SVGID_00000034063826353659036970000009264976324792381594_"
       x="1162.4189"
       y="522.367"
       width="690.39001"
       height="402.72699" />
    <rect
       id="SVGID_00000090992870479615493910000003472970011267099821_"
       x="1162.4189"
       y="522.367"
       width="690.39001"
       height="402.72699" />
  </defs>
  <g
     inkscape:label="Layer 1"
     inkscape:groupmode="layer"
     id="layer1">
    <g
       id="IRAQ_2_"
       transform="matrix(0.32271733,0,0,0.32271733,-376.11265,-168.29682)">&#10;	<g
   id="g138">&#10;		<g
   id="g137">&#10;			<defs
   id="defs128">&#10;				&#10;					<rect
   id="rect1"
   x="1162.4189"
   y="522.367"
   width="690.39001"
   height="402.72699" />
&#10;			</defs>
&#10;			<clipPath
   id="clipPath10">&#10;				<use
   xlink:href="#SVGID_00000034063826353659036970000009264976324792381594_"
   style="overflow:visible"
   id="use10" />
&#10;			</clipPath>
&#10;			&#10;				<rect
   x="1162.4189"
   y="522.367"
   style="fill:#dc072f"
   width="690.39001"
   height="134.26801"
   clip-path="url(#SVGID_00000140712907754403136460000011851055371786153131_)"
   id="rect128" />
&#10;			&#10;				<rect
   x="1162.4189"
   y="656.63501"
   style="fill:#ffffff"
   width="690.39001"
   height="134.19"
   clip-path="url(#SVGID_00000140712907754403136460000011851055371786153131_)"
   id="rect129" />
&#10;			&#10;				<rect
   x="1162.4189"
   y="790.82599"
   style="fill:#010101"
   width="690.39001"
   height="134.26801"
   clip-path="url(#SVGID_00000140712907754403136460000011851055371786153131_)"
   id="rect130" />
&#10;			<g
   clip-path="url(#SVGID_00000140712907754403136460000011851055371786153131_)"
   id="g136">&#10;				<defs
   id="defs130">&#10;					&#10;						<rect
   id="rect2"
   x="1162.4189"
   y="522.367"
   width="690.39001"
   height="402.72699" />
&#10;				</defs>
&#10;				<clipPath
   id="clipPath11">&#10;					<use
   xlink:href="#SVGID_00000090992870479615493910000003472970011267099821_"
   style="overflow:visible"
   id="use11" />
&#10;				</clipPath>
&#10;				<path
   style="fill:#009b44"
   d="m 1567.237,699.062 c -0.924,-0.482 -1.768,-1.205 -2.091,-1.526 -0.481,-0.722 -0.199,-0.722 1.689,-0.161 3.415,0.885 5.624,0.482 7.794,-1.366 l 1.926,-1.526 2.251,1.126 c 1.245,0.561 2.53,0.963 2.893,0.882 1.044,-0.24 3.055,-2.812 3.013,-3.696 -0.042,-1.203 0.843,-0.882 1.286,0.404 0.923,2.411 -0.362,5.142 -2.692,5.703 -1.124,0.321 -2.168,0.24 -3.938,-0.321 -2.087,-0.804 -2.411,-0.804 -3.533,0 -2.331,1.846 -5.665,2.01 -8.598,0.481"
   clip-path="url(#SVGID_00000046332524945551117510000010314883869369053628_)"
   id="path130" />
&#10;				<path
   style="fill:#009b44"
   d="m 1575.593,691.348 c -0.803,-1.126 -1.768,-5.063 -1.486,-6.026 0.281,-0.884 0.563,-1.045 1.325,-0.804 1.366,0.481 1.69,1.365 1.526,4.581 -0.241,2.409 -0.561,3.213 -1.365,2.249"
   clip-path="url(#SVGID_00000046332524945551117510000010314883869369053628_)"
   id="path131" />
&#10;				<path
   style="fill:#009b44"
   d="m 1476.357,688.456 c -0.282,1.93 3.415,6.668 5.103,7.553 -1.166,0.482 -2.531,0.321 -3.577,0.886 -5.784,5.864 -26.998,26.434 -30.855,31.417 11.452,0.24 24.148,-0.24 34.914,-0.642 0,-7.794 7.352,-8.277 12.295,-11.089 2.53,4.017 8.919,3.777 9.762,9.723 0,7.311 0,18.159 0,26.034 h -97.949 c -1.69,7.474 -8.559,13.418 -18.162,11.007 3.013,-3.133 7.957,-4.258 9.762,-8.516 1.529,-9.323 -3.011,-15.026 -5.906,-20.33 4.822,-1.849 5.546,-2.331 10.407,-5.544 -3.335,10.445 8.958,9.319 18.199,9.079 0.281,-3.535 0.12,-7.714 -2.571,-8.358 3.454,-1.205 4.057,-1.686 9.682,-6.428 v 14.142 c 21.896,0 45.479,-0.24 67.817,-0.24 0,-4.339 1.166,-11.41 -2.29,-11.41 -3.373,0 -0.16,9.08 -2.773,9.08 h -52.388 c 0,-2.009 -0.041,-6.107 -0.041,-9 2.209,-2.251 2.01,-2.008 17.117,-17.275 1.528,-1.447 12.172,-11.009 21.454,-20.089"
   clip-path="url(#SVGID_00000046332524945551117510000010314883869369053628_)"
   id="path132" />
&#10;				<path
   style="fill:#009b44"
   d="m 1607.252,688.135 c 3.655,1.928 6.55,4.659 11.048,5.784 -0.561,1.849 -2.17,2.572 -2.61,4.581 v 39.534 c 5.02,1.043 6.066,-1.688 8.476,-3.214 0.603,6.267 4.62,12.535 4.54,17.517 h -21.454 z"
   clip-path="url(#SVGID_00000046332524945551117510000010314883869369053628_)"
   id="path133" />
&#10;				<path
   style="fill:#009b44"
   d="m 1578.766,709.347 c 0,0 7.714,-6.588 7.714,-6.831 v 34.474 h 5.666 c 0,-13.178 -0.161,-26.517 -0.161,-38.73 2.251,-2.251 6.75,-5.626 7.794,-7.874 v 61.871 c -15.79,0 -45.238,0 -49.095,0 -0.762,-12.856 -0.884,-26.116 14.063,-23.301 v -5.306 c -0.482,-0.803 -1.286,0.243 -1.447,-0.803 2.412,-2.49 3.174,-3.055 9.561,-8.678 0,6.749 0.122,22.821 0.122,22.821 1.568,0 4.659,0 5.705,0 0,0 0.078,-26.838 0.078,-27.643 m -18.48,27.241 c 1.045,1.607 4.661,1.526 4.46,-1.125 -0.563,-2.17 -5.303,-1.285 -4.46,1.125"
   clip-path="url(#SVGID_00000046332524945551117510000010314883869369053628_)"
   id="path134" />
&#10;				<path
   style="fill:#009b44"
   d="m 1418.022,756.594 c 1.648,0 2.973,1.367 2.973,2.974 0,1.688 -1.325,2.974 -2.973,2.974 -1.687,0 -3.055,-1.286 -3.055,-2.974 0,-1.607 1.367,-2.974 3.055,-2.974"
   clip-path="url(#SVGID_00000046332524945551117510000010314883869369053628_)"
   id="path135" />
&#10;				<path
   style="fill:#009b44"
   d="m 1510.627,688.216 c 3.657,1.928 6.55,4.579 11.048,5.784 -0.561,1.849 -2.168,2.491 -2.651,4.581 v 39.454 c 5.063,1.126 6.068,-1.688 8.437,-3.135 0.683,6.188 4.661,12.456 4.499,17.519 h -21.334 v -64.203 z"
   clip-path="url(#SVGID_00000046332524945551117510000010314883869369053628_)"
   id="path136" />
&#10;			</g>
&#10;		</g>
&#10;	</g>
&#10;</g>
  </g>
</svg>
