<?xml version="1.0" encoding="UTF-8" standalone="no"?>
<!-- Created with Inkscape (http://www.inkscape.org/) -->

<svg
   width="200mm"
   height="200mm"
   viewBox="0 0 200 200"
   version="1.1"
   id="svg1"
   inkscape:version="1.3 (0e150ed6c4, 2023-07-21)"
   sodipodi:docname="ar2.svg"
   xmlns:inkscape="http://www.inkscape.org/namespaces/inkscape"
   xmlns:sodipodi="http://sodipodi.sourceforge.net/DTD/sodipodi-0.dtd"
   xmlns:xlink="http://www.w3.org/1999/xlink"
   xmlns="http://www.w3.org/2000/svg"
   xmlns:svg="http://www.w3.org/2000/svg">
  <sodipodi:namedview
     id="namedview1"
     pagecolor="#ffffff"
     bordercolor="#000000"
     borderopacity="0.25"
     inkscape:showpageshadow="2"
     inkscape:pageopacity="0.0"
     inkscape:pagecheckerboard="0"
     inkscape:deskcolor="#d1d1d1"
     inkscape:document-units="mm"
     inkscape:zoom="0.37291748"
     inkscape:cx="449.16103"
     inkscape:cy="517.54077"
     inkscape:window-width="1440"
     inkscape:window-height="788"
     inkscape:window-x="-6"
     inkscape:window-y="-6"
     inkscape:window-maximized="1"
     inkscape:current-layer="g104"
     showguides="true" />
  <defs
     id="defs1">
    <linearGradient
       id="SVGID_1_"
       gradientUnits="userSpaceOnUse"
       x1="574.74518"
       y1="1439.5249"
       x2="574.74518"
       y2="1119.8138">&#10;		<stop
   offset="0"
   style="stop-color:#FFFFFF"
   id="stop1" />
&#10;		<stop
   offset="1"
   style="stop-color:#000000"
   id="stop2" />
&#10;	</linearGradient>
    <linearGradient
       id="SVGID_00000047778278253418891750000005209166276687078027_"
       gradientUnits="userSpaceOnUse"
       x1="643.65082"
       y1="1439.3456"
       x2="643.65082"
       y2="1119.8293">&#10;		<stop
   offset="0"
   style="stop-color:#FFFFFF"
   id="stop29" />
&#10;		<stop
   offset="1"
   style="stop-color:#000000"
   id="stop30" />
&#10;	</linearGradient>
    <linearGradient
       id="SVGID_00000041997605143306700110000010461258862908282787_"
       gradientUnits="userSpaceOnUse"
       x1="533.63129"
       y1="1439.3867"
       x2="533.63129"
       y2="1119.8057">&#10;		<stop
   offset="0"
   style="stop-color:#FFFFFF"
   id="stop47" />
&#10;		<stop
   offset="1"
   style="stop-color:#000000"
   id="stop48" />
&#10;	</linearGradient>
    <linearGradient
       id="SVGID_00000155848017489993412310000000918367992648323503_"
       gradientUnits="userSpaceOnUse"
       x1="508.53421"
       y1="1439.3867"
       x2="508.53421"
       y2="1119.8057">&#10;		<stop
   offset="0"
   style="stop-color:#FFFFFF"
   id="stop49" />
&#10;		<stop
   offset="1"
   style="stop-color:#000000"
   id="stop50" />
&#10;	</linearGradient>
    <linearGradient
       id="SVGID_00000085930520891535388130000004007771590618698382_"
       gradientUnits="userSpaceOnUse"
       x1="463.84061"
       y1="1439.3867"
       x2="463.84061"
       y2="1119.8057">&#10;		<stop
   offset="0"
   style="stop-color:#FFFFFF"
   id="stop52" />
&#10;		<stop
   offset="1"
   style="stop-color:#000000"
   id="stop53" />
&#10;	</linearGradient>
    <linearGradient
       id="SVGID_00000032650236333224804290000015565688386428956850_"
       gradientUnits="userSpaceOnUse"
       x1="438.74341"
       y1="1439.3867"
       x2="438.74341"
       y2="1119.8057">&#10;		<stop
   offset="0"
   style="stop-color:#FFFFFF"
   id="stop54" />
&#10;		<stop
   offset="1"
   style="stop-color:#000000"
   id="stop55" />
&#10;	</linearGradient>
    <linearGradient
       id="SVGID_00000032612102969620406780000012119029125977179046_"
       gradientUnits="userSpaceOnUse"
       x1="330.10129"
       y1="1439.3546"
       x2="330.10129"
       y2="1119.8092">&#10;		<stop
   offset="0"
   style="stop-color:#FFFFFF"
   id="stop63" />
&#10;		<stop
   offset="1"
   style="stop-color:#000000"
   id="stop64" />
&#10;	</linearGradient>
    <linearGradient
       id="SVGID_00000148625903304154708210000008391889313324503174_"
       gradientUnits="userSpaceOnUse"
       x1="331.7189"
       y1="1439.3314"
       x2="331.7189"
       y2="1119.8209">&#10;		<stop
   offset="0"
   style="stop-color:#FFFFFF"
   id="stop66" />
&#10;		<stop
   offset="1"
   style="stop-color:#000000"
   id="stop67" />
&#10;	</linearGradient>
    <clipPath
       id="SVGID_00000117655316365862415300000013965440297626966960_">&#10;		<use
   xlink:href="#SVGID_00000155144978251398340570000017827834022058375578_"
   style="overflow:visible"
   id="use94" />
&#10;	</clipPath>
    <clipPath
       id="SVGID_00000091707968947333250810000013220762630341895082_">&#10;					<use
   xlink:href="#SVGID_00000155105438815673527330000013411351746959335333_"
   style="overflow:visible"
   id="use95" />
&#10;				</clipPath>
    <clipPath
       id="clipPath1">&#10;					<use
   xlink:href="#SVGID_00000155105438815673527330000013411351746959335333_"
   style="overflow:visible"
   id="use1" />
&#10;				</clipPath>
    <clipPath
       id="clipPath2">&#10;					<use
   xlink:href="#SVGID_00000155105438815673527330000013411351746959335333_"
   style="overflow:visible"
   id="use2" />
&#10;				</clipPath>
    <clipPath
       id="clipPath3">&#10;					<use
   xlink:href="#SVGID_00000155105438815673527330000013411351746959335333_"
   style="overflow:visible"
   id="use3" />
&#10;				</clipPath>
    <clipPath
       id="SVGID_00000075871903273348516520000000291465183893324451_">&#10;						<use
   xlink:href="#SVGID_00000039828737203690723270000001895008902313895842_"
   style="overflow:visible"
   id="use97" />
&#10;					</clipPath>
    <clipPath
       id="clipPath4">&#10;						<use
   xlink:href="#SVGID_00000039828737203690723270000001895008902313895842_"
   style="overflow:visible"
   id="use4" />
&#10;					</clipPath>
    <clipPath
       id="clipPath5">&#10;						<use
   xlink:href="#SVGID_00000039828737203690723270000001895008902313895842_"
   style="overflow:visible"
   id="use5" />
&#10;					</clipPath>
    <clipPath
       id="clipPath6">&#10;						<use
   xlink:href="#SVGID_00000039828737203690723270000001895008902313895842_"
   style="overflow:visible"
   id="use6" />
&#10;					</clipPath>
    <clipPath
       id="clipPath7">&#10;						<use
   xlink:href="#SVGID_00000039828737203690723270000001895008902313895842_"
   style="overflow:visible"
   id="use7" />
&#10;					</clipPath>
    <clipPath
       id="clipPath8">&#10;						<use
   xlink:href="#SVGID_00000039828737203690723270000001895008902313895842_"
   style="overflow:visible"
   id="use8" />
&#10;					</clipPath>
    <clipPath
       id="clipPath9">&#10;						<use
   xlink:href="#SVGID_00000039828737203690723270000001895008902313895842_"
   style="overflow:visible"
   id="use9" />
&#10;					</clipPath>
    <path
       id="SVGID_00000155144978251398340570000017827834022058375578_"
       d="m 1716.356,1069.61 c -93.699,0 -169.672,75.966 -169.672,169.672 0,93.689 75.973,169.646 169.672,169.646 93.698,0 169.664,-75.957 169.664,-169.646 0,-93.706 -75.966,-169.672 -169.664,-169.672 z" />
    <rect
       id="SVGID_00000155105438815673527330000013411351746959335333_"
       x="1425.507"
       y="1069.61"
       width="581.69"
       height="339.319" />
    <rect
       id="SVGID_00000039828737203690723270000001895008902313895842_"
       x="1425.507"
       y="1069.61"
       width="581.69"
       height="339.319" />
  </defs>
  <g
     inkscape:label="Layer 1"
     inkscape:groupmode="layer"
     id="layer1">
    <g
       id="g106"
       transform="matrix(0.56620185,0,0,0.56620185,-870.99775,-602.44817)">&#10;	<defs
   id="defs94">&#10;		<path
   id="path1"
   d="m 1716.356,1069.61 c -93.699,0 -169.672,75.966 -169.672,169.672 0,93.689 75.973,169.646 169.672,169.646 93.698,0 169.664,-75.957 169.664,-169.646 0,-93.706 -75.966,-169.672 -169.664,-169.672 z" />
&#10;	</defs>
&#10;	<clipPath
   id="clipPath10">&#10;		<use
   xlink:href="#SVGID_00000155144978251398340570000017827834022058375578_"
   style="overflow:visible"
   id="use10" />
&#10;	</clipPath>
&#10;	&#10;		<g
   id="IRAQ_00000042712654685016931190000002270981786169024898_"
   clip-path="url(#SVGID_00000117655316365862415300000013965440297626966960_)">&#10;		<g
   id="g105">&#10;			<g
   id="g104">&#10;				<defs
   id="defs95">&#10;					&#10;						<rect
   id="rect1"
   x="1425.507"
   y="1069.61"
   width="581.69"
   height="339.319" />
&#10;				</defs>
&#10;				<clipPath
   id="clipPath11">&#10;					<use
   xlink:href="#SVGID_00000155105438815673527330000013411351746959335333_"
   style="overflow:visible"
   id="use11" />
&#10;				</clipPath>
&#10;				&#10;					&#10;				&#10;					&#10;				&#10;					<circle
   style="fill:#ffffff;stroke:#0099cc;stroke-width:0;fill-opacity:1"
   id="path2"
   cx="1718.7601"
   cy="1239.4476"
   r="171.67181"
   transform="translate(0,-1.8029495e-5)" />
<rect
   x="1425.507"
   y="1069.61"
   style="fill:#dc072f"
   width="581.69"
   height="113.128"
   clip-path="url(#SVGID_00000091707968947333250810000013220762630341895082_)"
   id="rect95"
   transform="translate(0,-1.8029495e-5)" />
<rect
   x="1425.507"
   y="1295.801"
   style="fill:#010101"
   width="581.69"
   height="113.128"
   clip-path="url(#SVGID_00000091707968947333250810000013220762630341895082_)"
   id="rect97" />
&#10;				<g
   clip-path="url(#SVGID_00000091707968947333250810000013220762630341895082_)"
   id="g103">&#10;					<defs
   id="defs97">&#10;						&#10;							<rect
   id="rect2"
   x="1425.507"
   y="1069.61"
   width="581.69"
   height="339.319" />
&#10;					</defs>
&#10;					<clipPath
   id="clipPath12">&#10;						<use
   xlink:href="#SVGID_00000039828737203690723270000001895008902313895842_"
   style="overflow:visible"
   id="use12" />
&#10;					</clipPath>
&#10;					<path
   style="fill:#009b44"
   d="m 1766.587,1218.485 c -0.778,-0.406 -1.489,-1.016 -1.762,-1.286 -0.405,-0.608 -0.168,-0.608 1.423,-0.136 2.877,0.745 4.739,0.406 6.567,-1.151 l 1.623,-1.286 1.896,0.949 c 1.048,0.473 2.132,0.811 2.437,0.743 0.88,-0.203 2.574,-2.369 2.539,-3.115 -0.035,-1.014 0.71,-0.743 1.083,0.34 0.778,2.031 -0.305,4.333 -2.268,4.806 -0.947,0.27 -1.827,0.203 -3.318,-0.27 -1.759,-0.677 -2.031,-0.677 -2.977,0 -1.962,1.557 -4.772,1.694 -7.243,0.406"
   clip-path="url(#SVGID_00000075871903273348516520000000291465183893324451_)"
   id="path97" />
&#10;					<path
   style="fill:#009b44"
   d="m 1773.627,1211.986 c -0.676,-0.949 -1.49,-4.266 -1.252,-5.077 0.237,-0.745 0.474,-0.881 1.116,-0.677 1.151,0.405 1.424,1.15 1.286,3.86 -0.202,2.029 -0.472,2.706 -1.15,1.894"
   clip-path="url(#SVGID_00000075871903273348516520000000291465183893324451_)"
   id="path98" />
&#10;					<path
   style="fill:#009b44"
   d="m 1690.016,1209.549 c -0.238,1.626 2.877,5.618 4.3,6.364 -0.983,0.406 -2.133,0.27 -3.014,0.746 -4.873,4.941 -22.747,22.272 -25.997,26.47 9.649,0.203 20.346,-0.203 29.417,-0.541 0,-6.567 6.194,-6.974 10.359,-9.344 2.132,3.385 7.515,3.182 8.225,8.192 0,6.16 0,15.3 0,21.935 h -82.527 c -1.424,6.297 -7.212,11.306 -15.302,9.274 2.539,-2.64 6.704,-3.587 8.225,-7.175 1.288,-7.855 -2.537,-12.66 -4.976,-17.129 4.063,-1.558 4.673,-1.964 8.769,-4.671 -2.81,8.801 7.548,7.852 15.334,7.65 0.236,-2.979 0.101,-6.499 -2.166,-7.042 2.91,-1.016 3.418,-1.421 8.157,-5.416 v 11.915 c 18.448,0 38.319,-0.203 57.139,-0.203 0,-3.656 0.983,-9.614 -1.929,-9.614 -2.842,0 -0.135,7.651 -2.337,7.651 h -44.14 c 0,-1.693 -0.035,-5.146 -0.035,-7.583 1.861,-1.896 1.694,-1.692 14.422,-14.555 1.287,-1.217 10.256,-9.274 18.076,-16.924"
   clip-path="url(#SVGID_00000075871903273348516520000000291465183893324451_)"
   id="path99" />
&#10;					<path
   style="fill:#009b44"
   d="m 1800.302,1209.278 c 3.08,1.624 5.519,3.926 9.309,4.873 -0.473,1.558 -1.829,2.167 -2.199,3.86 v 33.31 c 4.23,0.879 5.111,-1.422 7.142,-2.708 0.508,5.28 3.893,10.562 3.825,14.759 h -18.076 v -54.094 z"
   clip-path="url(#SVGID_00000075871903273348516520000000291465183893324451_)"
   id="path100" />
&#10;					<path
   style="fill:#009b44"
   d="m 1776.301,1227.15 c 0,0 6.499,-5.551 6.499,-5.755 v 29.046 h 4.774 c 0,-11.103 -0.136,-22.342 -0.136,-32.632 1.896,-1.896 5.687,-4.741 6.567,-6.634 v 52.129 c -13.304,0 -38.115,0 -41.365,0 -0.642,-10.832 -0.745,-22.004 11.849,-19.633 v -4.47 c -0.406,-0.676 -1.083,0.204 -1.219,-0.676 2.032,-2.098 2.674,-2.574 8.056,-7.311 0,5.686 0.103,19.228 0.103,19.228 1.321,0 3.926,0 4.806,0 -10e-4,-10e-4 0.066,-22.613 0.066,-23.292 m -15.571,22.953 c 0.881,1.354 3.927,1.286 3.758,-0.948 -0.473,-1.828 -4.468,-1.083 -3.758,0.948"
   clip-path="url(#SVGID_00000075871903273348516520000000291465183893324451_)"
   id="path101" />
&#10;					<path
   style="fill:#009b44"
   d="m 1640.865,1266.958 c 1.389,0 2.505,1.152 2.505,2.506 0,1.422 -1.116,2.506 -2.505,2.506 -1.422,0 -2.574,-1.083 -2.574,-2.506 10e-4,-1.353 1.153,-2.506 2.574,-2.506"
   clip-path="url(#SVGID_00000075871903273348516520000000291465183893324451_)"
   id="path102" />
&#10;					<path
   style="fill:#009b44"
   d="m 1718.89,1209.346 c 3.082,1.624 5.519,3.858 9.309,4.873 -0.473,1.558 -1.827,2.099 -2.234,3.86 v 33.242 c 4.266,0.949 5.113,-1.422 7.109,-2.642 0.576,5.214 3.927,10.495 3.791,14.76 h -17.975 z"
   clip-path="url(#SVGID_00000075871903273348516520000000291465183893324451_)"
   id="path103" />
&#10;				</g>
&#10;			</g>
&#10;		</g>
&#10;	</g>
&#10;</g>
  </g>
</svg>
