<?xml version="1.0" encoding="UTF-8" standalone="no"?>
<!-- Created with Inkscape (http://www.inkscape.org/) -->

<svg
   width="220mm"
   height="130mm"
   viewBox="0 0 220 130"
   version="1.1"
   id="svg1"
   inkscape:version="1.3 (0e150ed6c4, 2023-07-21)"
   sodipodi:docname="en.svg"
   xmlns:inkscape="http://www.inkscape.org/namespaces/inkscape"
   xmlns:sodipodi="http://sodipodi.sourceforge.net/DTD/sodipodi-0.dtd"
   xmlns:xlink="http://www.w3.org/1999/xlink"
   xmlns="http://www.w3.org/2000/svg"
   xmlns:svg="http://www.w3.org/2000/svg">
  <sodipodi:namedview
     id="namedview1"
     pagecolor="#ffffff"
     bordercolor="#000000"
     borderopacity="0.25"
     inkscape:showpageshadow="2"
     inkscape:pageopacity="0.0"
     inkscape:pagecheckerboard="0"
     inkscape:deskcolor="#d1d1d1"
     inkscape:document-units="mm"
     inkscape:zoom="0.18645874"
     inkscape:cx="-249.38493"
     inkscape:cy="606.03219"
     inkscape:window-width="1440"
     inkscape:window-height="788"
     inkscape:window-x="-6"
     inkscape:window-y="-6"
     inkscape:window-maximized="1"
     inkscape:current-layer="layer1" />
  <defs
     id="defs1">
    <clipPath
       id="SVGID_00000140712907754403136460000011851055371786153131_">&#10;				<use
   xlink:href="#SVGID_00000034063826353659036970000009264976324792381594_"
   style="overflow:visible"
   id="use128" />
&#10;			</clipPath>
    <clipPath
       id="clipPath1">&#10;				<use
   xlink:href="#SVGID_00000034063826353659036970000009264976324792381594_"
   style="overflow:visible"
   id="use1" />
&#10;			</clipPath>
    <clipPath
       id="clipPath2">&#10;				<use
   xlink:href="#SVGID_00000034063826353659036970000009264976324792381594_"
   style="overflow:visible"
   id="use2" />
&#10;			</clipPath>
    <clipPath
       id="clipPath3">&#10;				<use
   xlink:href="#SVGID_00000034063826353659036970000009264976324792381594_"
   style="overflow:visible"
   id="use3" />
&#10;			</clipPath>
    <clipPath
       id="SVGID_00000046332524945551117510000010314883869369053628_">&#10;					<use
   xlink:href="#SVGID_00000090992870479615493910000003472970011267099821_"
   style="overflow:visible"
   id="use130" />
&#10;				</clipPath>
    <clipPath
       id="clipPath4">&#10;					<use
   xlink:href="#SVGID_00000090992870479615493910000003472970011267099821_"
   style="overflow:visible"
   id="use4" />
&#10;				</clipPath>
    <clipPath
       id="clipPath5">&#10;					<use
   xlink:href="#SVGID_00000090992870479615493910000003472970011267099821_"
   style="overflow:visible"
   id="use5" />
&#10;				</clipPath>
    <clipPath
       id="clipPath6">&#10;					<use
   xlink:href="#SVGID_00000090992870479615493910000003472970011267099821_"
   style="overflow:visible"
   id="use6" />
&#10;				</clipPath>
    <clipPath
       id="clipPath7">&#10;					<use
   xlink:href="#SVGID_00000090992870479615493910000003472970011267099821_"
   style="overflow:visible"
   id="use7" />
&#10;				</clipPath>
    <clipPath
       id="clipPath8">&#10;					<use
   xlink:href="#SVGID_00000090992870479615493910000003472970011267099821_"
   style="overflow:visible"
   id="use8" />
&#10;				</clipPath>
    <clipPath
       id="clipPath9">&#10;					<use
   xlink:href="#SVGID_00000090992870479615493910000003472970011267099821_"
   style="overflow:visible"
   id="use9" />
&#10;				</clipPath>
    <rect
       id="SVGID_00000034063826353659036970000009264976324792381594_"
       x="1162.4189"
       y="522.367"
       width="690.39001"
       height="402.72699" />
    <rect
       id="SVGID_00000090992870479615493910000003472970011267099821_"
       x="1162.4189"
       y="522.367"
       width="690.39001"
       height="402.72699" />
  </defs>
  <g
     inkscape:label="Layer 1"
     inkscape:groupmode="layer"
     id="layer1">
    <g
       id="IRAQ_2_"
       transform="matrix(0.32271733,0,0,0.32271733,-376.11265,-168.29682)"
       style="display:none">&#10;	<g
   id="g138">&#10;		<g
   id="g137">&#10;			<defs
   id="defs128">&#10;				&#10;					<rect
   id="rect1"
   x="1162.4189"
   y="522.367"
   width="690.39001"
   height="402.72699" />
&#10;			</defs>
&#10;			<clipPath
   id="clipPath10">&#10;				<use
   xlink:href="#SVGID_00000034063826353659036970000009264976324792381594_"
   style="overflow:visible"
   id="use10" />
&#10;			</clipPath>
&#10;			&#10;				<rect
   x="1162.4189"
   y="522.367"
   style="fill:#dc072f"
   width="690.39001"
   height="134.26801"
   clip-path="url(#SVGID_00000140712907754403136460000011851055371786153131_)"
   id="rect128" />
&#10;			&#10;				<rect
   x="1162.4189"
   y="656.63501"
   style="fill:#ffffff"
   width="690.39001"
   height="134.19"
   clip-path="url(#SVGID_00000140712907754403136460000011851055371786153131_)"
   id="rect129" />
&#10;			&#10;				<rect
   x="1162.4189"
   y="790.82599"
   style="fill:#010101"
   width="690.39001"
   height="134.26801"
   clip-path="url(#SVGID_00000140712907754403136460000011851055371786153131_)"
   id="rect130" />
&#10;			<g
   clip-path="url(#SVGID_00000140712907754403136460000011851055371786153131_)"
   id="g136">&#10;				<defs
   id="defs130">&#10;					&#10;						<rect
   id="rect2"
   x="1162.4189"
   y="522.367"
   width="690.39001"
   height="402.72699" />
&#10;				</defs>
&#10;				<clipPath
   id="clipPath11">&#10;					<use
   xlink:href="#SVGID_00000090992870479615493910000003472970011267099821_"
   style="overflow:visible"
   id="use11" />
&#10;				</clipPath>
&#10;				<path
   style="fill:#009b44"
   d="m 1567.237,699.062 c -0.924,-0.482 -1.768,-1.205 -2.091,-1.526 -0.481,-0.722 -0.199,-0.722 1.689,-0.161 3.415,0.885 5.624,0.482 7.794,-1.366 l 1.926,-1.526 2.251,1.126 c 1.245,0.561 2.53,0.963 2.893,0.882 1.044,-0.24 3.055,-2.812 3.013,-3.696 -0.042,-1.203 0.843,-0.882 1.286,0.404 0.923,2.411 -0.362,5.142 -2.692,5.703 -1.124,0.321 -2.168,0.24 -3.938,-0.321 -2.087,-0.804 -2.411,-0.804 -3.533,0 -2.331,1.846 -5.665,2.01 -8.598,0.481"
   clip-path="url(#SVGID_00000046332524945551117510000010314883869369053628_)"
   id="path130" />
&#10;				<path
   style="fill:#009b44"
   d="m 1575.593,691.348 c -0.803,-1.126 -1.768,-5.063 -1.486,-6.026 0.281,-0.884 0.563,-1.045 1.325,-0.804 1.366,0.481 1.69,1.365 1.526,4.581 -0.241,2.409 -0.561,3.213 -1.365,2.249"
   clip-path="url(#SVGID_00000046332524945551117510000010314883869369053628_)"
   id="path131" />
&#10;				<path
   style="fill:#009b44"
   d="m 1476.357,688.456 c -0.282,1.93 3.415,6.668 5.103,7.553 -1.166,0.482 -2.531,0.321 -3.577,0.886 -5.784,5.864 -26.998,26.434 -30.855,31.417 11.452,0.24 24.148,-0.24 34.914,-0.642 0,-7.794 7.352,-8.277 12.295,-11.089 2.53,4.017 8.919,3.777 9.762,9.723 0,7.311 0,18.159 0,26.034 h -97.949 c -1.69,7.474 -8.559,13.418 -18.162,11.007 3.013,-3.133 7.957,-4.258 9.762,-8.516 1.529,-9.323 -3.011,-15.026 -5.906,-20.33 4.822,-1.849 5.546,-2.331 10.407,-5.544 -3.335,10.445 8.958,9.319 18.199,9.079 0.281,-3.535 0.12,-7.714 -2.571,-8.358 3.454,-1.205 4.057,-1.686 9.682,-6.428 v 14.142 c 21.896,0 45.479,-0.24 67.817,-0.24 0,-4.339 1.166,-11.41 -2.29,-11.41 -3.373,0 -0.16,9.08 -2.773,9.08 h -52.388 c 0,-2.009 -0.041,-6.107 -0.041,-9 2.209,-2.251 2.01,-2.008 17.117,-17.275 1.528,-1.447 12.172,-11.009 21.454,-20.089"
   clip-path="url(#SVGID_00000046332524945551117510000010314883869369053628_)"
   id="path132" />
&#10;				<path
   style="fill:#009b44"
   d="m 1607.252,688.135 c 3.655,1.928 6.55,4.659 11.048,5.784 -0.561,1.849 -2.17,2.572 -2.61,4.581 v 39.534 c 5.02,1.043 6.066,-1.688 8.476,-3.214 0.603,6.267 4.62,12.535 4.54,17.517 h -21.454 z"
   clip-path="url(#SVGID_00000046332524945551117510000010314883869369053628_)"
   id="path133" />
&#10;				<path
   style="fill:#009b44"
   d="m 1578.766,709.347 c 0,0 7.714,-6.588 7.714,-6.831 v 34.474 h 5.666 c 0,-13.178 -0.161,-26.517 -0.161,-38.73 2.251,-2.251 6.75,-5.626 7.794,-7.874 v 61.871 c -15.79,0 -45.238,0 -49.095,0 -0.762,-12.856 -0.884,-26.116 14.063,-23.301 v -5.306 c -0.482,-0.803 -1.286,0.243 -1.447,-0.803 2.412,-2.49 3.174,-3.055 9.561,-8.678 0,6.749 0.122,22.821 0.122,22.821 1.568,0 4.659,0 5.705,0 0,0 0.078,-26.838 0.078,-27.643 m -18.48,27.241 c 1.045,1.607 4.661,1.526 4.46,-1.125 -0.563,-2.17 -5.303,-1.285 -4.46,1.125"
   clip-path="url(#SVGID_00000046332524945551117510000010314883869369053628_)"
   id="path134" />
&#10;				<path
   style="fill:#009b44"
   d="m 1418.022,756.594 c 1.648,0 2.973,1.367 2.973,2.974 0,1.688 -1.325,2.974 -2.973,2.974 -1.687,0 -3.055,-1.286 -3.055,-2.974 0,-1.607 1.367,-2.974 3.055,-2.974"
   clip-path="url(#SVGID_00000046332524945551117510000010314883869369053628_)"
   id="path135" />
&#10;				<path
   style="fill:#009b44"
   d="m 1510.627,688.216 c 3.657,1.928 6.55,4.579 11.048,5.784 -0.561,1.849 -2.168,2.491 -2.651,4.581 v 39.454 c 5.063,1.126 6.068,-1.688 8.437,-3.135 0.683,6.188 4.661,12.456 4.499,17.519 h -21.334 v -64.203 z"
   clip-path="url(#SVGID_00000046332524945551117510000010314883869369053628_)"
   id="path136" />
&#10;			</g>
&#10;		</g>
&#10;	</g>
&#10;</g>
    <g
       id="Flag"
       transform="matrix(0.21114429,0,0,0.19059081,-100.76706,-35.438669)">&#10;	<g
   id="XMLID_761_">&#10;		<rect
   id="XMLID_762_"
   x="484.207"
   y="831.07898"
   style="fill:#c40c3a"
   width="1035.585"
   height="53.106998" />
&#10;	</g>
&#10;	<g
   id="XMLID_759_">&#10;		<rect
   id="XMLID_760_"
   x="484.207"
   y="777.97198"
   style="fill:#ffffff"
   width="1035.585"
   height="53.106998" />
&#10;	</g>
&#10;	<g
   id="XMLID_757_">&#10;		<rect
   id="XMLID_758_"
   x="484.207"
   y="724.86499"
   style="fill:#c40c3a"
   width="1035.585"
   height="53.106998" />
&#10;	</g>
&#10;	<g
   id="XMLID_755_">&#10;		<rect
   id="XMLID_756_"
   x="484.207"
   y="671.758"
   style="fill:#ffffff"
   width="1035.585"
   height="53.106998" />
&#10;	</g>
&#10;	<g
   id="XMLID_753_">&#10;		<rect
   id="XMLID_754_"
   x="484.207"
   y="618.651"
   style="fill:#c40c3a"
   width="1035.585"
   height="53.106998" />
&#10;	</g>
&#10;	<g
   id="XMLID_751_">&#10;		<rect
   id="XMLID_752_"
   x="484.207"
   y="565.54401"
   style="fill:#ffffff"
   width="1035.585"
   height="53.106998" />
&#10;	</g>
&#10;	<g
   id="XMLID_749_">&#10;		<rect
   id="XMLID_750_"
   x="484.207"
   y="512.43701"
   style="fill:#c40c3a"
   width="1035.585"
   height="53.106998" />
&#10;	</g>
&#10;	<g
   id="XMLID_747_">&#10;		<rect
   id="XMLID_748_"
   x="484.207"
   y="459.32999"
   style="fill:#ffffff"
   width="1035.585"
   height="53.106998" />
&#10;	</g>
&#10;	<g
   id="XMLID_745_">&#10;		<rect
   id="XMLID_746_"
   x="484.207"
   y="406.22299"
   style="fill:#c40c3a"
   width="1035.585"
   height="53.106998" />
&#10;	</g>
&#10;	<g
   id="XMLID_743_">&#10;		<rect
   id="XMLID_744_"
   x="484.207"
   y="353.116"
   style="fill:#ffffff"
   width="1035.585"
   height="53.106998" />
&#10;	</g>
&#10;	<g
   id="XMLID_741_">&#10;		<rect
   id="XMLID_742_"
   x="484.207"
   y="300.01001"
   style="fill:#c40c3a"
   width="1035.585"
   height="53.106998" />
&#10;	</g>
&#10;	<g
   id="XMLID_739_">&#10;		<rect
   id="XMLID_740_"
   x="484.207"
   y="246.903"
   style="fill:#ffffff"
   width="1035.585"
   height="53.106998" />
&#10;	</g>
&#10;	<g
   id="XMLID_737_">&#10;		<rect
   id="XMLID_738_"
   x="484.207"
   y="193.79601"
   style="fill:#c40c3a"
   width="1035.585"
   height="53.106998" />
&#10;	</g>
&#10;	<rect
   id="XMLID_736_"
   x="484.207"
   y="193.79601"
   style="fill:#2b3e75"
   width="443.82199"
   height="371.74899" />
&#10;	<g
   id="XMLID_7_">&#10;		<g
   id="XMLID_90_">&#10;			<g
   id="XMLID_111_">&#10;				<polygon
   id="XMLID_112_"
   style="fill:#ffffff"
   points="874.476,224.149 879.432,209.724 884.388,224.149 900.427,224.149 887.451,233.064 892.408,247.49 879.432,238.575 866.456,247.49 871.412,233.064 858.437,224.149 " />
&#10;			</g>
&#10;			<g
   id="XMLID_109_">&#10;				<polygon
   id="XMLID_110_"
   style="fill:#ffffff"
   points="804.685,224.149 809.641,209.724 814.598,224.149 830.636,224.149 817.661,233.064 822.617,247.49 809.641,238.575 796.665,247.49 801.622,233.064 788.646,224.149 " />
&#10;			</g>
&#10;			<g
   id="XMLID_107_">&#10;				<polygon
   id="XMLID_108_"
   style="fill:#ffffff"
   points="734.894,224.149 739.85,209.724 744.807,224.149 760.846,224.149 747.87,233.064 752.826,247.49 739.85,238.575 726.875,247.49 731.831,233.064 718.855,224.149 " />
&#10;			</g>
&#10;			<g
   id="XMLID_105_">&#10;				<polygon
   id="XMLID_106_"
   style="fill:#ffffff"
   points="665.104,224.149 670.06,209.724 675.016,224.149 691.055,224.149 678.079,233.064 683.036,247.49 670.06,238.575 657.084,247.49 662.04,233.064 649.065,224.149 " />
&#10;			</g>
&#10;			<g
   id="XMLID_103_">&#10;				<polygon
   id="XMLID_104_"
   style="fill:#ffffff"
   points="595.313,224.149 600.269,209.724 605.225,224.149 621.264,224.149 608.289,233.064 613.245,247.49 600.269,238.575 587.293,247.49 592.25,233.064 579.274,224.149 " />
&#10;			</g>
&#10;			<g
   id="XMLID_101_">&#10;				<polygon
   id="XMLID_102_"
   style="fill:#ffffff"
   points="525.522,224.149 530.479,209.724 535.435,224.149 551.474,224.149 538.498,233.064 543.454,247.49 530.479,238.575 517.503,247.49 522.459,233.064 509.483,224.149 " />
&#10;			</g>
&#10;			<g
   id="XMLID_99_">&#10;				<polygon
   id="XMLID_100_"
   style="fill:#ffffff"
   points="840.105,261.915 845.061,247.49 850.017,261.915 866.056,261.915 853.08,270.83 858.037,285.255 845.061,276.34 832.085,285.255 837.041,270.83 824.066,261.915 " />
&#10;			</g>
&#10;			<g
   id="XMLID_97_">&#10;				<polygon
   id="XMLID_98_"
   style="fill:#ffffff"
   points="770.314,261.915 775.27,247.49 780.227,261.915 796.265,261.915 783.29,270.83 788.246,285.255 775.27,276.34 762.294,285.255 767.251,270.83 754.275,261.915 " />
&#10;			</g>
&#10;			<g
   id="XMLID_95_">&#10;				<polygon
   id="XMLID_96_"
   style="fill:#ffffff"
   points="700.523,261.915 705.479,247.49 710.436,261.915 726.475,261.915 713.499,270.83 718.455,285.255 705.479,276.34 692.504,285.255 697.46,270.83 684.484,261.915 " />
&#10;			</g>
&#10;			<g
   id="XMLID_93_">&#10;				<polygon
   id="XMLID_94_"
   style="fill:#ffffff"
   points="630.732,261.915 635.689,247.49 640.645,261.915 656.684,261.915 643.708,270.83 648.665,285.255 635.689,276.34 622.713,285.255 627.669,270.83 614.694,261.915 " />
&#10;			</g>
&#10;			<g
   id="XMLID_91_">&#10;				<polygon
   id="XMLID_92_"
   style="fill:#ffffff"
   points="560.942,261.915 565.898,247.49 570.854,261.915 586.893,261.915 573.917,270.83 578.874,285.255 565.898,276.34 552.922,285.255 557.879,270.83 544.903,261.915 " />
&#10;			</g>
&#10;		</g>
&#10;		<g
   id="XMLID_67_">&#10;			<g
   id="XMLID_88_">&#10;				<polygon
   id="XMLID_89_"
   style="fill:#ffffff"
   points="874.476,299.681 879.432,285.255 884.388,299.681 900.427,299.681 887.451,308.596 892.408,323.021 879.432,314.106 866.456,323.021 871.412,308.596 858.437,299.681 " />
&#10;			</g>
&#10;			<g
   id="XMLID_86_">&#10;				<polygon
   id="XMLID_87_"
   style="fill:#ffffff"
   points="804.685,299.681 809.641,285.255 814.598,299.681 830.636,299.681 817.661,308.596 822.617,323.021 809.641,314.106 796.665,323.021 801.622,308.596 788.646,299.681 " />
&#10;			</g>
&#10;			<g
   id="XMLID_84_">&#10;				<polygon
   id="XMLID_85_"
   style="fill:#ffffff"
   points="734.894,299.681 739.85,285.255 744.807,299.681 760.846,299.681 747.87,308.596 752.826,323.021 739.85,314.106 726.875,323.021 731.831,308.596 718.855,299.681 " />
&#10;			</g>
&#10;			<g
   id="XMLID_82_">&#10;				<polygon
   id="XMLID_83_"
   style="fill:#ffffff"
   points="665.104,299.681 670.06,285.255 675.016,299.681 691.055,299.681 678.079,308.596 683.036,323.021 670.06,314.106 657.084,323.021 662.04,308.596 649.065,299.681 " />
&#10;			</g>
&#10;			<g
   id="XMLID_80_">&#10;				<polygon
   id="XMLID_81_"
   style="fill:#ffffff"
   points="595.313,299.681 600.269,285.255 605.225,299.681 621.264,299.681 608.289,308.596 613.245,323.021 600.269,314.106 587.293,323.021 592.25,308.596 579.274,299.681 " />
&#10;			</g>
&#10;			<g
   id="XMLID_78_">&#10;				<polygon
   id="XMLID_79_"
   style="fill:#ffffff"
   points="525.522,299.681 530.479,285.255 535.435,299.681 551.474,299.681 538.498,308.596 543.454,323.021 530.479,314.106 517.503,323.021 522.459,308.596 509.483,299.681 " />
&#10;			</g>
&#10;			<g
   id="XMLID_76_">&#10;				<polygon
   id="XMLID_77_"
   style="fill:#ffffff"
   points="840.105,337.447 845.061,323.021 850.017,337.447 866.056,337.447 853.08,346.362 858.037,360.787 845.061,351.872 832.085,360.787 837.041,346.362 824.066,337.447 " />
&#10;			</g>
&#10;			<g
   id="XMLID_74_">&#10;				<polygon
   id="XMLID_75_"
   style="fill:#ffffff"
   points="770.314,337.447 775.27,323.021 780.227,337.447 796.265,337.447 783.29,346.362 788.246,360.787 775.27,351.872 762.294,360.787 767.251,346.362 754.275,337.447 " />
&#10;			</g>
&#10;			<g
   id="XMLID_72_">&#10;				<polygon
   id="XMLID_73_"
   style="fill:#ffffff"
   points="700.523,337.447 705.479,323.021 710.436,337.447 726.475,337.447 713.499,346.362 718.455,360.787 705.479,351.872 692.504,360.787 697.46,346.362 684.484,337.447 " />
&#10;			</g>
&#10;			<g
   id="XMLID_70_">&#10;				<polygon
   id="XMLID_71_"
   style="fill:#ffffff"
   points="630.732,337.447 635.689,323.021 640.645,337.447 656.684,337.447 643.708,346.362 648.665,360.787 635.689,351.872 622.713,360.787 627.669,346.362 614.694,337.447 " />
&#10;			</g>
&#10;			<g
   id="XMLID_68_">&#10;				<polygon
   id="XMLID_69_"
   style="fill:#ffffff"
   points="560.942,337.447 565.898,323.021 570.854,337.447 586.893,337.447 573.917,346.362 578.874,360.787 565.898,351.872 552.922,360.787 557.879,346.362 544.903,337.447 " />
&#10;			</g>
&#10;		</g>
&#10;		<g
   id="XMLID_44_">&#10;			<g
   id="XMLID_65_">&#10;				<polygon
   id="XMLID_66_"
   style="fill:#ffffff"
   points="874.476,375.212 879.432,360.787 884.388,375.212 900.427,375.212 887.451,384.128 892.408,398.553 879.432,389.638 866.456,398.553 871.412,384.128 858.437,375.212 " />
&#10;			</g>
&#10;			<g
   id="XMLID_63_">&#10;				<polygon
   id="XMLID_64_"
   style="fill:#ffffff"
   points="804.685,375.212 809.641,360.787 814.598,375.212 830.636,375.212 817.661,384.128 822.617,398.553 809.641,389.638 796.665,398.553 801.622,384.128 788.646,375.212 " />
&#10;			</g>
&#10;			<g
   id="XMLID_61_">&#10;				<polygon
   id="XMLID_62_"
   style="fill:#ffffff"
   points="734.894,375.212 739.85,360.787 744.807,375.212 760.846,375.212 747.87,384.128 752.826,398.553 739.85,389.638 726.875,398.553 731.831,384.128 718.855,375.212 " />
&#10;			</g>
&#10;			<g
   id="XMLID_59_">&#10;				<polygon
   id="XMLID_60_"
   style="fill:#ffffff"
   points="665.104,375.212 670.06,360.787 675.016,375.212 691.055,375.212 678.079,384.128 683.036,398.553 670.06,389.638 657.084,398.553 662.04,384.128 649.065,375.212 " />
&#10;			</g>
&#10;			<g
   id="XMLID_57_">&#10;				<polygon
   id="XMLID_58_"
   style="fill:#ffffff"
   points="595.313,375.212 600.269,360.787 605.225,375.212 621.264,375.212 608.289,384.128 613.245,398.553 600.269,389.638 587.293,398.553 592.25,384.128 579.274,375.212 " />
&#10;			</g>
&#10;			<g
   id="XMLID_55_">&#10;				<polygon
   id="XMLID_56_"
   style="fill:#ffffff"
   points="525.522,375.212 530.479,360.787 535.435,375.212 551.474,375.212 538.498,384.128 543.454,398.553 530.479,389.638 517.503,398.553 522.459,384.128 509.483,375.212 " />
&#10;			</g>
&#10;			<g
   id="XMLID_53_">&#10;				<polygon
   id="XMLID_54_"
   style="fill:#ffffff"
   points="840.105,412.978 845.061,398.553 850.017,412.978 866.056,412.978 853.08,421.893 858.037,436.319 845.061,427.403 832.085,436.319 837.041,421.893 824.066,412.978 " />
&#10;			</g>
&#10;			<g
   id="XMLID_51_">&#10;				<polygon
   id="XMLID_52_"
   style="fill:#ffffff"
   points="770.314,412.978 775.27,398.553 780.227,412.978 796.265,412.978 783.29,421.893 788.246,436.319 775.27,427.403 762.294,436.319 767.251,421.893 754.275,412.978 " />
&#10;			</g>
&#10;			<g
   id="XMLID_49_">&#10;				<polygon
   id="XMLID_50_"
   style="fill:#ffffff"
   points="700.523,412.978 705.479,398.553 710.436,412.978 726.475,412.978 713.499,421.893 718.455,436.319 705.479,427.403 692.504,436.319 697.46,421.893 684.484,412.978 " />
&#10;			</g>
&#10;			<g
   id="XMLID_47_">&#10;				<polygon
   id="XMLID_48_"
   style="fill:#ffffff"
   points="630.732,412.978 635.689,398.553 640.645,412.978 656.684,412.978 643.708,421.893 648.665,436.319 635.689,427.403 622.713,436.319 627.669,421.893 614.694,412.978 " />
&#10;			</g>
&#10;			<g
   id="XMLID_45_">&#10;				<polygon
   id="XMLID_46_"
   style="fill:#ffffff"
   points="560.942,412.978 565.898,398.553 570.854,412.978 586.893,412.978 573.917,421.893 578.874,436.319 565.898,427.403 552.922,436.319 557.879,421.893 544.903,412.978 " />
&#10;			</g>
&#10;		</g>
&#10;		<g
   id="XMLID_31_">&#10;			<g
   id="XMLID_42_">&#10;				<polygon
   id="XMLID_43_"
   style="fill:#ffffff"
   points="874.476,450.744 879.432,436.319 884.388,450.744 900.427,450.744 887.451,459.659 892.408,474.084 879.432,465.169 866.456,474.084 871.412,459.659 858.437,450.744 " />
&#10;			</g>
&#10;			<g
   id="XMLID_40_">&#10;				<polygon
   id="XMLID_41_"
   style="fill:#ffffff"
   points="804.685,450.744 809.641,436.319 814.598,450.744 830.636,450.744 817.661,459.659 822.617,474.084 809.641,465.169 796.665,474.084 801.622,459.659 788.646,450.744 " />
&#10;			</g>
&#10;			<g
   id="XMLID_38_">&#10;				<polygon
   id="XMLID_39_"
   style="fill:#ffffff"
   points="734.894,450.744 739.85,436.319 744.807,450.744 760.846,450.744 747.87,459.659 752.826,474.084 739.85,465.169 726.875,474.084 731.831,459.659 718.855,450.744 " />
&#10;			</g>
&#10;			<g
   id="XMLID_36_">&#10;				<polygon
   id="XMLID_37_"
   style="fill:#ffffff"
   points="665.104,450.744 670.06,436.319 675.016,450.744 691.055,450.744 678.079,459.659 683.036,474.084 670.06,465.169 657.084,474.084 662.04,459.659 649.065,450.744 " />
&#10;			</g>
&#10;			<g
   id="XMLID_34_">&#10;				<polygon
   id="XMLID_35_"
   style="fill:#ffffff"
   points="595.313,450.744 600.269,436.319 605.225,450.744 621.264,450.744 608.289,459.659 613.245,474.084 600.269,465.169 587.293,474.084 592.25,459.659 579.274,450.744 " />
&#10;			</g>
&#10;			<g
   id="XMLID_32_">&#10;				<polygon
   id="XMLID_33_"
   style="fill:#ffffff"
   points="525.522,450.744 530.479,436.319 535.435,450.744 551.474,450.744 538.498,459.659 543.454,474.084 530.479,465.169 517.503,474.084 522.459,459.659 509.483,450.744 " />
&#10;			</g>
&#10;		</g>
&#10;		<g
   id="XMLID_18_">&#10;			<g
   id="XMLID_29_">&#10;				<polygon
   id="XMLID_30_"
   style="fill:#ffffff"
   points="875,526.276 879.956,511.85 884.913,526.276 900.952,526.276 887.976,535.191 892.932,549.616 879.956,540.701 866.98,549.616 871.937,535.191 858.961,526.276 " />
&#10;			</g>
&#10;			<g
   id="XMLID_27_">&#10;				<polygon
   id="XMLID_28_"
   style="fill:#ffffff"
   points="805.209,526.276 810.166,511.85 815.122,526.276 831.161,526.276 818.185,535.191 823.141,549.616 810.166,540.701 797.19,549.616 802.146,535.191 789.17,526.276 " />
&#10;			</g>
&#10;			<g
   id="XMLID_25_">&#10;				<polygon
   id="XMLID_26_"
   style="fill:#ffffff"
   points="735.418,526.276 740.375,511.85 745.331,526.276 761.37,526.276 748.394,535.191 753.351,549.616 740.375,540.701 727.399,549.616 732.355,535.191 719.38,526.276 " />
&#10;			</g>
&#10;			<g
   id="XMLID_23_">&#10;				<polygon
   id="XMLID_24_"
   style="fill:#ffffff"
   points="665.628,526.276 670.584,511.85 675.54,526.276 691.579,526.276 678.604,535.191 683.56,549.616 670.584,540.701 657.608,549.616 662.565,535.191 649.589,526.276 " />
&#10;			</g>
&#10;			<g
   id="XMLID_21_">&#10;				<polygon
   id="XMLID_22_"
   style="fill:#ffffff"
   points="595.837,526.276 600.793,511.85 605.75,526.276 621.789,526.276 608.813,535.191 613.769,549.616 600.793,540.701 587.818,549.616 592.774,535.191 579.798,526.276 " />
&#10;			</g>
&#10;			<g
   id="XMLID_19_">&#10;				<polygon
   id="XMLID_20_"
   style="fill:#ffffff"
   points="526.047,526.276 531.003,511.85 535.959,526.276 551.998,526.276 539.022,535.191 543.978,549.616 531.003,540.701 518.027,549.616 522.983,535.191 510.008,526.276 " />
&#10;			</g>
&#10;		</g>
&#10;		<g
   id="XMLID_16_">&#10;			<polygon
   id="XMLID_17_"
   style="fill:#ffffff"
   points="840.105,488.51 845.061,474.084 850.017,488.51 866.056,488.51 853.08,497.425 858.037,511.85 845.061,502.935 832.085,511.85 837.041,497.425 824.066,488.51 " />
&#10;		</g>
&#10;		<g
   id="XMLID_14_">&#10;			<polygon
   id="XMLID_15_"
   style="fill:#ffffff"
   points="770.314,488.51 775.27,474.084 780.227,488.51 796.265,488.51 783.29,497.425 788.246,511.85 775.27,502.935 762.294,511.85 767.251,497.425 754.275,488.51 " />
&#10;		</g>
&#10;		<g
   id="XMLID_12_">&#10;			<polygon
   id="XMLID_13_"
   style="fill:#ffffff"
   points="700.523,488.51 705.479,474.084 710.436,488.51 726.475,488.51 713.499,497.425 718.455,511.85 705.479,502.935 692.504,511.85 697.46,497.425 684.484,488.51 " />
&#10;		</g>
&#10;		<g
   id="XMLID_10_">&#10;			<polygon
   id="XMLID_11_"
   style="fill:#ffffff"
   points="630.732,488.51 635.689,474.084 640.645,488.51 656.684,488.51 643.708,497.425 648.665,511.85 635.689,502.935 622.713,511.85 627.669,497.425 614.694,488.51 " />
&#10;		</g>
&#10;		<g
   id="XMLID_8_">&#10;			<polygon
   id="XMLID_9_"
   style="fill:#ffffff"
   points="560.942,488.51 565.898,474.084 570.854,488.51 586.893,488.51 573.917,497.425 578.874,511.85 565.898,502.935 552.922,511.85 557.879,497.425 544.903,488.51 " />
&#10;		</g>
&#10;	</g>
&#10;</g>
  </g>
</svg>
