<?xml version="1.0" encoding="UTF-8" standalone="no"?>
<!-- Created with Inkscape (http://www.inkscape.org/) -->

<svg
   width="200mm"
   height="200mm"
   viewBox="0 0 200 200"
   version="1.1"
   id="svg1"
   inkscape:version="1.3 (0e150ed6c4, 2023-07-21)"
   sodipodi:docname="en2.svg"
   xmlns:inkscape="http://www.inkscape.org/namespaces/inkscape"
   xmlns:sodipodi="http://sodipodi.sourceforge.net/DTD/sodipodi-0.dtd"
   xmlns="http://www.w3.org/2000/svg"
   xmlns:svg="http://www.w3.org/2000/svg">
  <sodipodi:namedview
     id="namedview1"
     pagecolor="#ffffff"
     bordercolor="#000000"
     borderopacity="0.25"
     inkscape:showpageshadow="2"
     inkscape:pageopacity="0.0"
     inkscape:pagecheckerboard="0"
     inkscape:deskcolor="#d1d1d1"
     inkscape:document-units="mm"
     inkscape:zoom="0.52738496"
     inkscape:cx="397.24303"
     inkscape:cy="561.25984"
     inkscape:window-width="1440"
     inkscape:window-height="788"
     inkscape:window-x="-6"
     inkscape:window-y="-6"
     inkscape:window-maximized="1"
     inkscape:current-layer="layer1" />
  <defs
     id="defs1">
    <linearGradient
       id="SVGID_1_"
       gradientUnits="userSpaceOnUse"
       x1="574.74518"
       y1="1439.5249"
       x2="574.74518"
       y2="1119.8138">&#10;		<stop
   offset="0"
   style="stop-color:#FFFFFF"
   id="stop1" />
&#10;		<stop
   offset="1"
   style="stop-color:#000000"
   id="stop2" />
&#10;	</linearGradient>
    <linearGradient
       id="SVGID_00000047778278253418891750000005209166276687078027_"
       gradientUnits="userSpaceOnUse"
       x1="643.65082"
       y1="1439.3456"
       x2="643.65082"
       y2="1119.8293">&#10;		<stop
   offset="0"
   style="stop-color:#FFFFFF"
   id="stop29" />
&#10;		<stop
   offset="1"
   style="stop-color:#000000"
   id="stop30" />
&#10;	</linearGradient>
    <linearGradient
       id="SVGID_00000041997605143306700110000010461258862908282787_"
       gradientUnits="userSpaceOnUse"
       x1="533.63129"
       y1="1439.3867"
       x2="533.63129"
       y2="1119.8057">&#10;		<stop
   offset="0"
   style="stop-color:#FFFFFF"
   id="stop47" />
&#10;		<stop
   offset="1"
   style="stop-color:#000000"
   id="stop48" />
&#10;	</linearGradient>
    <linearGradient
       id="SVGID_00000155848017489993412310000000918367992648323503_"
       gradientUnits="userSpaceOnUse"
       x1="508.53421"
       y1="1439.3867"
       x2="508.53421"
       y2="1119.8057">&#10;		<stop
   offset="0"
   style="stop-color:#FFFFFF"
   id="stop49" />
&#10;		<stop
   offset="1"
   style="stop-color:#000000"
   id="stop50" />
&#10;	</linearGradient>
    <linearGradient
       id="SVGID_00000085930520891535388130000004007771590618698382_"
       gradientUnits="userSpaceOnUse"
       x1="463.84061"
       y1="1439.3867"
       x2="463.84061"
       y2="1119.8057">&#10;		<stop
   offset="0"
   style="stop-color:#FFFFFF"
   id="stop52" />
&#10;		<stop
   offset="1"
   style="stop-color:#000000"
   id="stop53" />
&#10;	</linearGradient>
    <linearGradient
       id="SVGID_00000032650236333224804290000015565688386428956850_"
       gradientUnits="userSpaceOnUse"
       x1="438.74341"
       y1="1439.3867"
       x2="438.74341"
       y2="1119.8057">&#10;		<stop
   offset="0"
   style="stop-color:#FFFFFF"
   id="stop54" />
&#10;		<stop
   offset="1"
   style="stop-color:#000000"
   id="stop55" />
&#10;	</linearGradient>
    <linearGradient
       id="SVGID_00000032612102969620406780000012119029125977179046_"
       gradientUnits="userSpaceOnUse"
       x1="330.10129"
       y1="1439.3546"
       x2="330.10129"
       y2="1119.8092">&#10;		<stop
   offset="0"
   style="stop-color:#FFFFFF"
   id="stop63" />
&#10;		<stop
   offset="1"
   style="stop-color:#000000"
   id="stop64" />
&#10;	</linearGradient>
    <linearGradient
       id="SVGID_00000148625903304154708210000008391889313324503174_"
       gradientUnits="userSpaceOnUse"
       x1="331.7189"
       y1="1439.3314"
       x2="331.7189"
       y2="1119.8209">&#10;		<stop
   offset="0"
   style="stop-color:#FFFFFF"
   id="stop66" />
&#10;		<stop
   offset="1"
   style="stop-color:#000000"
   id="stop67" />
&#10;	</linearGradient>
  </defs>
  <g
     inkscape:label="Layer 1"
     inkscape:groupmode="layer"
     id="layer1">
    <g
       id="Circle_flag"
       transform="matrix(0.26458333,0,0,0.26458333,-53.09124,-287.76249)">&#10;	<path
   style="fill:#c40c3a"
   d="m 579.81,1119.814 h -10.13 v 0.159 c 3.366,-0.097 6.741,-0.159 10.13,-0.159 z"
   id="path1" />
&#10;	<linearGradient
   id="linearGradient4"
   gradientUnits="userSpaceOnUse"
   x1="574.74518"
   y1="1439.5249"
   x2="574.74518"
   y2="1119.8138">&#10;		<stop
   offset="0"
   style="stop-color:#FFFFFF"
   id="stop3" />
&#10;		<stop
   offset="1"
   style="stop-color:#000000"
   id="stop4" />
&#10;	</linearGradient>
&#10;	<path
   style="fill:url(#SVGID_1_)"
   d="m 579.81,1119.814 h -10.13 v 0.159 c 3.366,-0.097 6.741,-0.159 10.13,-0.159 z"
   id="path2" />
&#10;	<path
   style="fill:#ffffff"
   d="m 256.344,1338.996 1.586,1.09 c 0.141,-0.362 0.273,-0.728 0.415,-1.09 z"
   id="path3" />
&#10;	<path
   style="fill:#c40c3a"
   d="m 395.797,1757.097 c 53.268,33.629 116.362,53.107 184.013,53.107 67.651,0 130.746,-19.478 184.013,-53.107 z"
   id="path4" />
&#10;	<path
   style="fill:#ffffff"
   d="m 395.797,1757.097 h 368.027 c 23.81,-15.032 45.658,-32.886 65.065,-53.107 H 330.732 c 19.406,20.221 41.254,38.075 65.065,53.107 z"
   id="path5" />
&#10;	<path
   style="fill:#c40c3a"
   d="m 330.732,1703.99 h 498.156 c 15.606,-16.261 29.642,-34.041 41.848,-53.107 H 288.884 c 12.206,19.066 26.242,36.846 41.848,53.107 z"
   id="path6" />
&#10;	<path
   style="fill:#ffffff"
   d="m 288.884,1650.884 h 581.853 c 10.734,-16.767 20.047,-34.529 27.794,-53.107 H 261.089 c 7.748,18.577 17.06,36.34 27.795,53.107 z"
   id="path7" />
&#10;	<path
   style="fill:#c40c3a"
   d="m 261.089,1597.776 h 637.442 c 7.112,-17.053 12.894,-34.798 17.219,-53.107 H 243.87 c 4.325,18.31 10.107,36.054 17.219,53.107 z"
   id="path8" />
&#10;	<path
   style="fill:#ffffff"
   d="m 243.87,1544.67 h 671.88 c 4.073,-17.241 6.869,-34.975 8.249,-53.107 H 235.621 c 1.379,18.131 4.176,35.866 8.249,53.107 z"
   id="path9" />
&#10;	<path
   style="fill:#c40c3a"
   d="m 643.651,1439.346 c -23.78,0 -47.384,-0.302 -70.792,-0.89 h -3.179 v 52.49 H 235.582 c 0.015,0.205 0.023,0.412 0.039,0.618 h 688.378 c 0.667,-8.764 1.006,-17.619 1.006,-26.553 0,-8.935 -0.339,-17.79 -1.006,-26.554 H 714.442 c -23.408,0.587 -47.011,0.889 -70.791,0.889 z"
   id="path10" />
&#10;	<path
   style="fill:#ffffff"
   d="m 923.999,1438.455 c -0.338,-4.442 -0.787,-8.853 -1.291,-13.247 -67.16,6.945 -136.787,11.45 -208.266,13.247 z"
   id="path11" />
&#10;	<path
   style="fill:#ffffff"
   d="m 572.859,1438.455 c -1.061,-0.027 -2.118,-0.06 -3.179,-0.088 v 0.088 z"
   id="path12" />
&#10;	<path
   style="fill:#2b3e75"
   d="m 242.242,1438.455 h -6.621 c -0.349,4.586 -0.581,9.204 -0.749,13.838 h 2.616 z"
   id="path13" />
&#10;	<path
   style="fill:#2b3e75"
   d="m 569.68,1438.455 h -47.872 l 4.754,13.838 h 16.039 l -12.976,8.915 4.956,14.425 -12.976,-8.915 -12.976,8.915 4.956,-14.425 -12.976,-8.915 h 16.039 l 4.755,-13.838 h -69.387 l 4.755,13.838 h 16.039 l -12.976,8.915 4.956,14.425 -12.976,-8.915 -12.976,8.915 4.956,-14.425 -12.976,-8.915 h 16.039 l 4.755,-13.838 h -69.387 l 4.755,13.838 h 16.039 l -12.976,8.915 4.956,14.425 -12.976,-8.915 -12.976,8.915 4.956,-14.425 -12.976,-8.915 h 16.039 l 4.755,-13.838 h -69.387 l 4.755,13.838 h 16.039 l -12.975,8.915 4.956,14.425 -12.976,-8.915 -12.976,8.915 4.956,-14.425 -12.976,-8.915 h 16.039 l 4.755,-13.838 h -69.387 l 4.755,13.838 h 16.039 l -12.976,8.915 4.956,14.425 -12.976,-8.915 -7.74,5.318 c 0.127,6.345 0.453,13.269 0.917,19.526 H 569.68 Z"
   id="path14" />
&#10;	<path
   style="fill:#2b3e75"
   d="m 242.444,1437.869 0.202,0.587 h 69.387 l 0.202,-0.587 0.202,0.587 h 69.387 l 0.202,-0.587 0.202,0.587 h 69.387 l 0.202,-0.587 0.202,0.587 h 69.387 l 0.202,-0.587 0.202,0.587 h 47.872 v -0.088 c -23.805,-0.625 -47.402,-1.553 -70.773,-2.768 l 0.78,2.269 -3.512,-2.413 c -5.846,-0.31 -11.678,-0.638 -17.495,-0.984 l -4.944,3.397 1.242,-3.615 c -15.937,-0.97 -31.758,-2.079 -47.463,-3.317 l 2.382,6.932 -11.105,-7.63 c -1.113,-0.091 -2.222,-0.188 -3.334,-0.281 l -11.513,7.911 2.965,-8.63 c -17.315,-1.502 -34.48,-3.163 -51.482,-4.984 l 4.678,13.614 -12.976,-8.916 -12.976,8.916 4.956,-14.425 -1.736,-1.193 c -14.333,-1.64 -28.548,-3.39 -42.636,-5.252 l -9.38,6.445 4.956,14.425 -12.976,-8.916 -12.976,8.916 4.956,-14.425 -12.976,-8.915 h 16.039 l 0.194,-0.566 c -11.223,-1.589 -22.36,-3.251 -33.413,-4.979 -1.583,9.697 -2.787,19.522 -3.544,29.473 h 6.621 z"
   id="path15" />
&#10;	<polygon
   style="fill:#ffffff"
   points="513.588,1461.209 508.631,1475.634 521.607,1466.719 534.583,1475.634 529.627,1461.209 542.602,1452.294 526.563,1452.294 521.809,1438.455 521.405,1438.455 516.651,1452.294 500.612,1452.294 "
   id="polygon15" />
&#10;	<polygon
   style="fill:#ffffff"
   points="521.809,1438.455 521.607,1437.869 521.405,1438.455 "
   id="polygon16" />
&#10;	<polygon
   style="fill:#ffffff"
   points="443.797,1461.209 438.841,1475.634 451.816,1466.719 464.792,1475.634 459.836,1461.209 472.812,1452.294 456.773,1452.294 452.018,1438.455 451.615,1438.455 446.86,1452.294 430.821,1452.294 "
   id="polygon17" />
&#10;	<polygon
   style="fill:#ffffff"
   points="452.018,1438.455 451.816,1437.869 451.615,1438.455 "
   id="polygon18" />
&#10;	<polygon
   style="fill:#ffffff"
   points="374.006,1461.209 369.05,1475.634 382.026,1466.719 395.001,1475.634 390.045,1461.209 403.021,1452.294 386.982,1452.294 382.227,1438.455 381.824,1438.455 377.069,1452.294 361.03,1452.294 "
   id="polygon19" />
&#10;	<polygon
   style="fill:#ffffff"
   points="382.227,1438.455 382.026,1437.869 381.824,1438.455 "
   id="polygon20" />
&#10;	<polygon
   style="fill:#ffffff"
   points="304.216,1461.209 299.259,1475.634 312.235,1466.719 325.211,1475.634 320.255,1461.209 333.23,1452.294 317.191,1452.294 312.437,1438.455 312.033,1438.455 307.279,1452.294 291.24,1452.294 "
   id="polygon21" />
&#10;	<polygon
   style="fill:#ffffff"
   points="312.437,1438.455 312.235,1437.869 312.033,1438.455 "
   id="polygon22" />
&#10;	<path
   style="fill:#ffffff"
   d="m 255.42,1475.634 -4.956,-14.425 12.976,-8.915 H 247.4 l -4.755,-13.838 h -0.404 l -4.755,13.838 h -2.616 c -0.153,4.222 -0.257,8.456 -0.257,12.715 0,2.35 0.042,4.689 0.089,7.028 l 7.74,-5.318 z"
   id="path22" />
&#10;	<polygon
   style="fill:#ffffff"
   points="242.646,1438.455 242.444,1437.869 242.242,1438.455 "
   id="polygon23" />
&#10;	<path
   style="fill:#ffffff"
   d="m 473.736,1437.869 4.944,-3.397 c -1.233,-0.073 -2.47,-0.143 -3.702,-0.218 z"
   id="path23" />
&#10;	<path
   style="fill:#ffffff"
   d="m 499.688,1437.869 -0.78,-2.269 c -0.911,-0.047 -1.822,-0.096 -2.733,-0.144 z"
   id="path24" />
&#10;	<path
   style="fill:#ffffff"
   d="m 429.897,1437.869 -2.382,-6.932 c -2.911,-0.229 -5.82,-0.459 -8.723,-0.698 z"
   id="path25" />
&#10;	<path
   style="fill:#ffffff"
   d="m 403.945,1437.869 11.513,-7.911 c -2.851,-0.238 -5.705,-0.473 -8.548,-0.72 z"
   id="path26" />
&#10;	<path
   style="fill:#ffffff"
   d="m 339.111,1423.443 -4.956,14.425 12.976,-8.916 12.976,8.916 -4.678,-13.614 c -6.04,-0.647 -12.055,-1.318 -18.054,-2.004 z"
   id="path27" />
&#10;	<path
   style="fill:#ffffff"
   d="m 272.383,1414.528 h -16.039 l 12.976,8.915 -4.956,14.425 12.976,-8.916 12.976,8.916 -4.956,-14.425 9.38,-6.445 c -7.424,-0.981 -14.808,-1.995 -22.161,-3.037 z"
   id="path28" />
&#10;	<path
   style="fill:#c40c3a"
   d="M 714.442,1438.455 H 572.859 c 23.408,0.588 47.011,0.89 70.792,0.89 23.78,10e-4 47.383,-0.301 70.791,-0.89 z"
   id="path29" />
&#10;	&#10;		<linearGradient
   id="linearGradient6"
   gradientUnits="userSpaceOnUse"
   x1="643.65082"
   y1="1439.3456"
   x2="643.65082"
   y2="1119.8293">&#10;		<stop
   offset="0"
   style="stop-color:#FFFFFF"
   id="stop5" />
&#10;		<stop
   offset="1"
   style="stop-color:#000000"
   id="stop6" />
&#10;	</linearGradient>
&#10;	<path
   style="fill:url(#SVGID_00000047778278253418891750000005209166276687078027_)"
   d="M 714.442,1438.455 H 572.859 c 23.408,0.588 47.011,0.89 70.792,0.89 23.78,10e-4 47.383,-0.301 70.791,-0.89 z"
   id="path30" />
&#10;	<path
   style="fill:#ffffff"
   d="m 569.68,1438.367 c 1.061,0.028 2.118,0.062 3.179,0.088 h 141.583 c 71.479,-1.796 141.106,-6.302 208.266,-13.247 -1.555,-13.54 -3.882,-26.843 -6.958,-39.86 H 569.68 Z"
   id="path31" />
&#10;	<path
   style="fill:#c40c3a"
   d="m 569.68,1385.349 h 346.07 c -4.325,-18.309 -10.107,-36.054 -17.219,-53.107 H 569.68 Z"
   id="path32" />
&#10;	<path
   style="fill:#ffffff"
   d="m 569.68,1332.242 h 328.851 c -7.748,-18.578 -17.06,-36.34 -27.794,-53.107 H 569.68 Z"
   id="path33" />
&#10;	<path
   style="fill:#c40c3a"
   d="m 569.68,1279.135 h 301.056 c -12.206,-19.066 -26.242,-36.845 -41.848,-53.107 H 569.68 Z"
   id="path34" />
&#10;	<path
   style="fill:#ffffff"
   d="m 569.68,1226.028 h 259.208 c -19.406,-20.221 -41.254,-38.075 -65.065,-53.107 H 569.68 Z"
   id="path35" />
&#10;	<path
   style="fill:#c40c3a"
   d="m 569.68,1172.921 h 194.143 c -53.268,-33.629 -116.362,-53.107 -184.013,-53.107 -3.389,0 -6.764,0.062 -10.13,0.159 z"
   id="path36" />
&#10;	<path
   style="fill:#2b3e75"
   d="m 277.34,1400.103 4.956,14.425 h 16.039 l -3.596,2.471 c 14.088,1.862 28.303,3.612 42.636,5.252 l -11.24,-7.723 h 16.039 l 4.956,-14.425 4.956,14.425 h 16.039 l -12.976,8.915 0.279,0.811 c 17.002,1.82 34.167,3.482 51.482,4.984 l 1.991,-5.795 -12.976,-8.915 h 16.039 l 4.956,-14.425 4.956,14.425 h 16.039 l -12.976,8.915 2.575,7.493 c 15.705,1.238 31.526,2.347 47.463,3.317 l 3.714,-10.81 -12.976,-8.915 h 16.039 l 4.956,-14.425 4.956,14.425 h 16.039 l -12.976,8.915 4.177,12.156 c 23.371,1.215 46.967,2.143 70.773,2.768 v -53.018 h -40.1 l -0.479,0.328 4.956,14.426 -12.976,-8.915 -12.976,8.915 4.956,-14.426 -0.479,-0.328 H 459.79 l -0.478,0.328 4.956,14.426 -12.976,-8.915 -12.976,8.915 4.956,-14.426 -0.479,-0.328 h -52.795 l -0.478,0.328 4.956,14.426 -12.976,-8.915 -12.975,8.915 4.956,-14.426 -0.479,-0.328 h -52.795 l -0.478,0.328 4.956,14.426 -12.976,-8.915 -12.976,8.915 4.956,-14.426 -0.478,-0.328 h -52.795 l -0.479,0.328 4.956,14.426 -12.424,-8.536 c -1.247,5.754 -2.35,11.56 -3.307,17.416 11.053,1.728 22.189,3.39 33.413,4.979 z"
   id="path37" />
&#10;	<path
   style="fill:#2b3e75"
   d="m 415.458,1429.958 c 1.112,0.093 2.221,0.189 3.334,0.281 l -1.871,-1.286 z"
   id="path38" />
&#10;	<path
   style="fill:#2b3e75"
   d="m 478.68,1434.471 c 5.817,0.346 11.649,0.674 17.495,0.984 l -9.464,-6.502 z"
   id="path39" />
&#10;	<path
   style="fill:#2b3e75"
   d="m 274.704,1332.242 h -13.615 c -0.935,2.241 -1.855,4.49 -2.744,6.755 h 14.038 z"
   id="path40" />
&#10;	<path
   style="fill:#2b3e75"
   d="m 262.915,1376.762 -12.497,8.587 h 52.795 l -12.497,-8.587 h 16.039 l 4.956,-14.425 4.956,14.425 h 16.039 l -12.497,8.587 h 52.795 l -12.497,-8.587 h 16.039 l 4.956,-14.425 4.957,14.425 h 16.039 l -12.497,8.587 h 52.795 l -12.497,-8.587 h 16.039 l 4.957,-14.425 4.956,14.425 h 16.039 l -12.497,8.587 h 52.795 l -12.498,-8.587 h 16.039 l 4.956,-14.425 4.956,14.425 h 16.039 l -12.497,8.587 h 40.1 v -53.107 H 489.35 l 2.321,6.755 h 16.039 l -12.976,8.915 4.956,14.425 -12.976,-8.915 -12.976,8.915 4.956,-14.425 -12.976,-8.915 h 16.039 l 2.321,-6.755 h -64.52 l 2.321,6.755 h 16.039 l -12.976,8.915 4.956,14.425 -12.976,-8.915 -12.976,8.915 4.956,-14.425 -12.976,-8.915 h 16.039 l 2.321,-6.755 h -64.52 l 2.321,6.755 h 16.039 l -12.976,8.915 4.956,14.425 -12.976,-8.915 -12.976,8.915 4.956,-14.425 -12.976,-8.915 h 16.039 l 2.321,-6.755 h -64.52 l 2.321,6.755 h 16.039 l -12.976,8.915 4.956,14.425 -12.976,-8.915 -12.976,8.915 4.956,-14.425 -11.389,-7.825 c -4.456,11.474 -8.308,23.248 -11.535,35.278 l 0.48,1.398 h 16.041 z"
   id="path41" />
&#10;	<path
   style="fill:#2b3e75"
   d="m 277.34,1324.571 2.636,7.671 h 64.52 l 2.636,-7.671 2.635,7.671 h 64.52 l 2.635,-7.671 2.635,7.671 h 64.52 l 2.635,-7.671 2.636,7.671 h 80.333 v -53.107 h -72.628 l 2.635,7.671 -11.164,-7.671 H 484.9 l -11.164,7.671 2.636,-7.671 h -49.11 l 2.636,7.671 -11.164,-7.671 h -3.623 l -11.164,7.671 2.635,-7.671 h -49.11 l 2.636,7.671 -11.164,-7.671 h -3.623 l -11.164,7.671 2.635,-7.671 h -47.906 c -0.263,0.411 -0.515,0.831 -0.777,1.244 l 2.208,6.427 -4.353,-2.991 c -9.506,15.383 -17.841,31.564 -24.873,48.427 h 13.615 z m 238.786,-23.34 4.956,-14.425 4.956,14.425 h 16.039 l -12.976,8.915 4.956,14.425 -12.976,-8.915 -12.976,8.915 4.956,-14.425 -12.976,-8.915 z m -69.79,0 4.957,-14.425 4.956,14.425 h 16.039 l -12.976,8.915 4.956,14.425 -12.976,-8.915 -12.976,8.915 4.956,-14.425 -12.976,-8.915 z m -69.791,0 4.956,-14.425 4.957,14.425 h 16.039 l -12.976,8.915 4.956,14.425 -12.976,-8.915 -12.975,8.915 4.956,-14.425 -12.976,-8.915 z m -69.791,0 4.956,-14.425 4.956,14.425 h 16.039 l -12.976,8.915 4.956,14.425 -12.976,-8.915 -12.976,8.915 4.956,-14.425 -12.976,-8.915 z"
   id="path42" />
&#10;	<polygon
   style="fill:#2b3e75"
   points="348.942,1279.135 347.13,1277.89 345.319,1279.135 "
   id="polygon42" />
&#10;	<polygon
   style="fill:#2b3e75"
   points="418.733,1279.135 416.921,1277.89 415.11,1279.135 "
   id="polygon43" />
&#10;	<path
   style="fill:#2b3e75"
   d="m 339.111,1272.38 -12.976,-8.915 h 16.039 l 4.956,-14.425 4.956,14.425 h 16.039 l -12.976,8.915 2.321,6.755 h 49.11 l 2.321,-6.755 -12.976,-8.915 h 16.039 l 4.956,-14.425 4.956,14.425 h 16.039 l -12.976,8.915 2.321,6.755 h 49.11 l 2.321,-6.755 -12.976,-8.915 h 16.039 l 4.956,-14.425 4.956,14.425 h 16.039 l -12.976,8.915 2.321,6.755 h 72.628 v -53.107 h -28.081 l -12.497,8.586 4.956,14.425 -12.976,-8.915 -12.976,8.915 4.956,-14.425 -12.497,-8.586 h -28.757 l -12.497,8.586 4.956,14.425 -12.976,-8.915 -12.976,8.915 4.956,-14.425 -12.497,-8.586 h -28.757 l -12.497,8.586 4.956,14.425 -12.976,-8.915 -12.975,8.915 4.956,-14.425 -12.497,-8.586 h -28.757 l -4.252,2.921 c -2.507,2.674 -4.973,5.387 -7.395,8.14 l 4.106,11.951 -9.042,-6.213 c -9.675,11.491 -18.63,23.609 -26.76,36.308 h 47.906 z"
   id="path43" />
&#10;	<polygon
   style="fill:#2b3e75"
   points="488.523,1279.135 486.712,1277.89 484.9,1279.135 "
   id="polygon44" />
&#10;	<path
   style="fill:#2b3e75"
   d="m 332.227,1226.028 h 28.757 l -0.478,-0.329 h 16.039 l 4.956,-14.425 4.957,14.425 h 16.039 l -0.478,0.329 h 28.757 l -0.479,-0.329 h 16.039 l 4.957,-14.425 4.956,14.425 h 16.039 l -0.479,0.329 h 28.757 l -0.479,-0.329 h 16.039 l 4.956,-14.425 4.956,14.425 h 16.039 l -0.479,0.329 h 28.081 v -53.107 h -35.824 l 0.202,0.587 -0.854,-0.587 H 508.96 l -0.854,0.587 0.202,-0.587 h -44.242 l 0.201,0.587 -0.854,-0.587 H 439.17 l -0.854,0.587 0.202,-0.587 h -42.721 c -13.69,8.643 -26.725,18.222 -39.026,28.647 l 3.335,9.706 -8.121,-5.579 c -7.253,6.377 -14.239,13.048 -20.932,20.005 h 1.653 z m 149.529,-38.095 4.956,-14.425 4.956,14.425 h 16.039 l -12.976,8.915 4.956,14.425 -12.976,-8.915 -12.976,8.915 4.956,-14.425 -12.976,-8.915 z m -69.791,0 4.956,-14.425 4.956,14.425 h 16.039 l -12.976,8.915 4.956,14.425 -12.976,-8.915 -12.976,8.915 4.956,-14.425 -12.976,-8.915 z"
   id="path44" />
&#10;	<path
   style="fill:#2b3e75"
   d="m 472.287,1150.167 -12.976,8.915 4.755,13.838 h 44.242 l 4.755,-13.838 -12.976,-8.915 h 16.039 l 4.956,-14.425 4.956,14.425 h 16.039 l -12.976,8.915 4.755,13.838 h 35.824 v -52.948 c -40.738,1.174 -79.707,9.401 -115.728,23.512 l 2.296,6.682 h 16.039 z"
   id="path45" />
&#10;	<polygon
   style="fill:#2b3e75"
   points="533.204,1172.921 521.083,1164.593 508.961,1172.921 "
   id="polygon45" />
&#10;	<polygon
   style="fill:#2b3e75"
   points="463.414,1172.921 451.292,1164.593 439.171,1172.921 "
   id="polygon46" />
&#10;	<path
   style="fill:#2b3e75"
   d="m 443.273,1159.083 -9.839,-6.76 c -13.009,6.1 -25.575,12.984 -37.637,20.598 h 42.721 z"
   id="path46" />
&#10;	<path
   style="fill:#2b3e75"
   d="m 447.771,1145.991 c -3.257,1.349 -6.496,2.731 -9.701,4.177 h 8.266 z"
   id="path47" />
&#10;	<polygon
   style="fill:#ffffff"
   points="533.857,1172.921 533.204,1172.921 534.058,1173.508 "
   id="polygon47" />
&#10;	&#10;		<linearGradient
   id="linearGradient8"
   gradientUnits="userSpaceOnUse"
   x1="533.63129"
   y1="1439.3867"
   x2="533.63129"
   y2="1119.8057">&#10;		<stop
   offset="0"
   style="stop-color:#FFFFFF"
   id="stop7" />
&#10;		<stop
   offset="1"
   style="stop-color:#000000"
   id="stop8" />
&#10;	</linearGradient>
&#10;	<polygon
   style="fill:url(#SVGID_00000041997605143306700110000010461258862908282787_)"
   points="533.857,1172.921 533.204,1172.921 534.058,1173.508 "
   id="polygon48" />
&#10;	<polygon
   style="fill:#ffffff"
   points="508.961,1172.921 508.309,1172.921 508.107,1173.508 "
   id="polygon49" />
&#10;	&#10;		<linearGradient
   id="linearGradient10"
   gradientUnits="userSpaceOnUse"
   x1="508.53421"
   y1="1439.3867"
   x2="508.53421"
   y2="1119.8057">&#10;		<stop
   offset="0"
   style="stop-color:#FFFFFF"
   id="stop9" />
&#10;		<stop
   offset="1"
   style="stop-color:#000000"
   id="stop10" />
&#10;	</linearGradient>
&#10;	<polygon
   style="fill:url(#SVGID_00000155848017489993412310000000918367992648323503_)"
   points="508.961,1172.921 508.309,1172.921 508.107,1173.508 "
   id="polygon50" />
&#10;	<polygon
   style="fill:#ffffff"
   points="526.039,1150.167 521.083,1135.742 516.126,1150.167 500.087,1150.167 513.063,1159.083 508.309,1172.921 508.961,1172.921 521.083,1164.593 533.204,1172.921 533.857,1172.921 529.102,1159.083 542.078,1150.167 "
   id="polygon51" />
&#10;	<polygon
   style="fill:#ffffff"
   points="464.066,1172.921 463.414,1172.921 464.268,1173.508 "
   id="polygon52" />
&#10;	&#10;		<linearGradient
   id="linearGradient12"
   gradientUnits="userSpaceOnUse"
   x1="463.84061"
   y1="1439.3867"
   x2="463.84061"
   y2="1119.8057">&#10;		<stop
   offset="0"
   style="stop-color:#FFFFFF"
   id="stop11" />
&#10;		<stop
   offset="1"
   style="stop-color:#000000"
   id="stop12" />
&#10;	</linearGradient>
&#10;	<polygon
   style="fill:url(#SVGID_00000085930520891535388130000004007771590618698382_)"
   points="464.066,1172.921 463.414,1172.921 464.268,1173.508 "
   id="polygon53" />
&#10;	<polygon
   style="fill:#ffffff"
   points="439.171,1172.921 438.518,1172.921 438.316,1173.508 "
   id="polygon54" />
&#10;	&#10;		<linearGradient
   id="linearGradient14"
   gradientUnits="userSpaceOnUse"
   x1="438.74341"
   y1="1439.3867"
   x2="438.74341"
   y2="1119.8057">&#10;		<stop
   offset="0"
   style="stop-color:#FFFFFF"
   id="stop13" />
&#10;		<stop
   offset="1"
   style="stop-color:#000000"
   id="stop14" />
&#10;	</linearGradient>
&#10;	<polygon
   style="fill:url(#SVGID_00000032650236333224804290000015565688386428956850_)"
   points="439.171,1172.921 438.518,1172.921 438.316,1173.508 "
   id="polygon55" />
&#10;	<path
   style="fill:#ffffff"
   d="m 438.518,1172.921 h 0.653 l 12.121,-8.328 12.121,8.328 h 0.653 l -4.755,-13.838 12.976,-8.915 h -16.039 l -2.296,-6.682 c -2.073,0.812 -4.129,1.655 -6.182,2.505 l -1.435,4.177 h -8.266 c -1.555,0.701 -3.093,1.432 -4.636,2.155 l 9.839,6.76 z"
   id="path55" />
&#10;	<polygon
   style="fill:#ffffff"
   points="494.731,1196.849 507.707,1187.933 491.668,1187.933 486.712,1173.508 481.756,1187.933 465.716,1187.933 478.692,1196.849 473.736,1211.274 486.712,1202.358 499.688,1211.274 "
   id="polygon56" />
&#10;	<polygon
   style="fill:#ffffff"
   points="424.94,1196.849 437.916,1187.933 421.877,1187.933 416.921,1173.508 411.965,1187.933 395.926,1187.933 408.901,1196.849 403.945,1211.274 416.921,1202.358 429.897,1211.274 "
   id="polygon57" />
&#10;	<path
   style="fill:#ffffff"
   d="m 356.771,1201.568 c -1.607,1.362 -3.204,2.736 -4.786,4.127 l 8.121,5.579 z"
   id="path57" />
&#10;	<polygon
   style="fill:#ffffff"
   points="500.566,1226.028 513.063,1234.614 508.107,1249.04 521.083,1240.124 534.058,1249.04 529.102,1234.614 541.599,1226.028 "
   id="polygon58" />
&#10;	<polygon
   style="fill:#ffffff"
   points="542.078,1225.699 526.039,1225.699 521.083,1211.274 516.126,1225.699 500.087,1225.699 500.566,1226.028 541.599,1226.028 "
   id="polygon59" />
&#10;	<polygon
   style="fill:#ffffff"
   points="430.775,1226.028 443.273,1234.614 438.316,1249.04 451.292,1240.124 464.268,1249.04 459.312,1234.614 471.809,1226.028 "
   id="polygon60" />
&#10;	<polygon
   style="fill:#ffffff"
   points="472.287,1225.699 456.248,1225.699 451.292,1211.274 446.336,1225.699 430.297,1225.699 430.775,1226.028 471.809,1226.028 "
   id="polygon61" />
&#10;	<polygon
   style="fill:#ffffff"
   points="360.984,1226.028 373.482,1234.614 368.526,1249.04 381.501,1240.124 394.477,1249.04 389.521,1234.614 402.018,1226.028 "
   id="polygon62" />
&#10;	<polygon
   style="fill:#ffffff"
   points="402.497,1225.699 386.458,1225.699 381.501,1211.274 376.545,1225.699 360.506,1225.699 360.984,1226.028 402.018,1226.028 "
   id="polygon63" />
&#10;	<path
   style="fill:#ffffff"
   d="m 327.975,1228.949 4.252,-2.921 h -1.495 c -0.927,0.966 -1.841,1.944 -2.757,2.921 z"
   id="path63" />
&#10;	&#10;		<linearGradient
   id="linearGradient16"
   gradientUnits="userSpaceOnUse"
   x1="330.10129"
   y1="1439.3546"
   x2="330.10129"
   y2="1119.8092">&#10;		<stop
   offset="0"
   style="stop-color:#FFFFFF"
   id="stop15" />
&#10;		<stop
   offset="1"
   style="stop-color:#000000"
   id="stop16" />
&#10;	</linearGradient>
&#10;	<path
   style="fill:url(#SVGID_00000032612102969620406780000012119029125977179046_)"
   d="m 327.975,1228.949 4.252,-2.921 h -1.495 c -0.927,0.966 -1.841,1.944 -2.757,2.921 z"
   id="path64" />
&#10;	<path
   style="fill:#ffffff"
   d="m 320.58,1237.089 c -1.667,1.894 -3.311,3.807 -4.936,5.738 l 9.042,6.213 z"
   id="path65" />
&#10;	<path
   style="fill:#ffffff"
   d="m 332.227,1226.028 0.479,-0.329 h -1.653 c -0.106,0.11 -0.215,0.218 -0.321,0.329 z"
   id="path66" />
&#10;	&#10;		<linearGradient
   id="linearGradient18"
   gradientUnits="userSpaceOnUse"
   x1="331.7189"
   y1="1439.3314"
   x2="331.7189"
   y2="1119.8209">&#10;		<stop
   offset="0"
   style="stop-color:#FFFFFF"
   id="stop17" />
&#10;		<stop
   offset="1"
   style="stop-color:#000000"
   id="stop18" />
&#10;	</linearGradient>
&#10;	<path
   style="fill:url(#SVGID_00000148625903304154708210000008391889313324503174_)"
   d="m 332.227,1226.028 0.479,-0.329 h -1.653 c -0.106,0.11 -0.215,0.218 -0.321,0.329 z"
   id="path67" />
&#10;	<polygon
   style="fill:#ffffff"
   points="484.9,1279.135 476.371,1279.135 473.736,1286.805 "
   id="polygon67" />
&#10;	<polygon
   style="fill:#ffffff"
   points="497.052,1279.135 488.523,1279.135 499.688,1286.805 "
   id="polygon68" />
&#10;	<polygon
   style="fill:#ffffff"
   points="415.11,1279.135 406.581,1279.135 403.945,1286.805 "
   id="polygon69" />
&#10;	<polygon
   style="fill:#ffffff"
   points="427.261,1279.135 418.733,1279.135 429.897,1286.805 "
   id="polygon70" />
&#10;	<polygon
   style="fill:#ffffff"
   points="421.877,1263.465 416.921,1249.04 411.965,1263.465 395.926,1263.465 408.901,1272.38 406.581,1279.135 415.11,1279.135 416.921,1277.89 418.733,1279.135 427.261,1279.135 424.94,1272.38 437.916,1263.465 "
   id="polygon71" />
&#10;	<polygon
   style="fill:#ffffff"
   points="345.319,1279.135 336.79,1279.135 334.155,1286.805 "
   id="polygon72" />
&#10;	<polygon
   style="fill:#ffffff"
   points="357.47,1279.135 348.942,1279.135 360.106,1286.805 "
   id="polygon73" />
&#10;	<polygon
   style="fill:#ffffff"
   points="352.087,1263.465 347.13,1249.04 342.174,1263.465 326.135,1263.465 339.111,1272.38 336.79,1279.135 345.319,1279.135 347.13,1277.89 348.942,1279.135 357.47,1279.135 355.15,1272.38 368.125,1263.465 "
   id="polygon74" />
&#10;	<path
   style="fill:#ffffff"
   d="m 288.107,1280.379 c -0.723,1.14 -1.435,2.287 -2.145,3.436 l 4.353,2.991 z"
   id="path74" />
&#10;	<polygon
   style="fill:#ffffff"
   points="529.102,1310.146 542.078,1301.231 526.039,1301.231 521.083,1286.805 516.126,1301.231 500.087,1301.231 513.063,1310.146 508.107,1324.571 521.083,1315.656 534.058,1324.571 "
   id="polygon75" />
&#10;	<polygon
   style="fill:#ffffff"
   points="459.312,1310.146 472.287,1301.231 456.248,1301.231 451.292,1286.805 446.336,1301.231 430.297,1301.231 443.273,1310.146 438.316,1324.571 451.292,1315.656 464.268,1324.571 "
   id="polygon76" />
&#10;	<polygon
   style="fill:#ffffff"
   points="389.521,1310.146 402.497,1301.231 386.458,1301.231 381.501,1286.805 376.545,1301.231 360.506,1301.231 373.482,1310.146 368.526,1324.571 381.501,1315.656 394.477,1324.571 "
   id="polygon77" />
&#10;	<polygon
   style="fill:#ffffff"
   points="319.73,1310.146 332.706,1301.231 316.667,1301.231 311.711,1286.805 306.754,1301.231 290.715,1301.231 303.691,1310.146 298.735,1324.571 311.711,1315.656 324.686,1324.571 "
   id="polygon78" />
&#10;	<polygon
   style="fill:#ffffff"
   points="478.692,1347.912 473.736,1362.337 486.712,1353.422 499.688,1362.337 494.731,1347.912 507.707,1338.996 491.668,1338.996 489.347,1332.242 484.076,1332.242 481.756,1338.996 465.716,1338.996 "
   id="polygon79" />
&#10;	<polygon
   style="fill:#ffffff"
   points="489.347,1332.242 486.712,1324.571 484.076,1332.242 "
   id="polygon80" />
&#10;	<polygon
   style="fill:#ffffff"
   points="408.901,1347.912 403.945,1362.337 416.921,1353.422 429.897,1362.337 424.94,1347.912 437.916,1338.996 421.877,1338.996 419.556,1332.242 414.286,1332.242 411.965,1338.996 395.926,1338.996 "
   id="polygon81" />
&#10;	<polygon
   style="fill:#ffffff"
   points="419.556,1332.242 416.921,1324.571 414.286,1332.242 "
   id="polygon82" />
&#10;	<polygon
   style="fill:#ffffff"
   points="339.111,1347.912 334.155,1362.337 347.13,1353.422 360.106,1362.337 355.15,1347.912 368.125,1338.996 352.087,1338.996 349.766,1332.242 344.495,1332.242 342.174,1338.996 326.135,1338.996 "
   id="polygon83" />
&#10;	<polygon
   style="fill:#ffffff"
   points="349.766,1332.242 347.13,1324.571 344.495,1332.242 "
   id="polygon84" />
&#10;	<path
   style="fill:#ffffff"
   d="m 264.364,1362.337 12.976,-8.915 12.976,8.915 -4.956,-14.425 12.976,-8.915 h -16.039 l -2.321,-6.755 h -5.271 l -2.321,6.755 h -14.038 c -0.142,0.362 -0.274,0.728 -0.415,1.09 l 11.389,7.825 z"
   id="path84" />
&#10;	<polygon
   style="fill:#ffffff"
   points="279.975,1332.242 277.34,1324.571 274.704,1332.242 "
   id="polygon85" />
&#10;	<polygon
   style="fill:#ffffff"
   points="512.585,1385.349 513.063,1385.677 508.107,1400.103 521.083,1391.188 534.058,1400.103 529.102,1385.677 529.581,1385.349 "
   id="polygon86" />
&#10;	<polygon
   style="fill:#ffffff"
   points="542.078,1376.762 526.039,1376.762 521.083,1362.337 516.126,1376.762 500.087,1376.762 512.585,1385.349 529.581,1385.349 "
   id="polygon87" />
&#10;	<polygon
   style="fill:#ffffff"
   points="442.794,1385.349 443.273,1385.677 438.316,1400.103 451.292,1391.188 464.268,1400.103 459.312,1385.677 459.79,1385.349 "
   id="polygon88" />
&#10;	<polygon
   style="fill:#ffffff"
   points="472.287,1376.762 456.248,1376.762 451.292,1362.337 446.336,1376.762 430.297,1376.762 442.794,1385.349 459.79,1385.349 "
   id="polygon89" />
&#10;	<polygon
   style="fill:#ffffff"
   points="373.003,1385.349 373.482,1385.677 368.526,1400.103 381.501,1391.188 394.477,1400.103 389.521,1385.677 389.999,1385.349 "
   id="polygon90" />
&#10;	<polygon
   style="fill:#ffffff"
   points="402.497,1376.762 386.458,1376.762 381.501,1362.337 376.545,1376.762 360.506,1376.762 373.003,1385.349 389.999,1385.349 "
   id="polygon91" />
&#10;	<polygon
   style="fill:#ffffff"
   points="303.213,1385.349 303.691,1385.677 298.735,1400.103 311.711,1391.188 324.686,1400.103 319.73,1385.677 320.208,1385.349 "
   id="polygon92" />
&#10;	<polygon
   style="fill:#ffffff"
   points="332.706,1376.762 316.667,1376.762 311.711,1362.337 306.754,1376.762 290.715,1376.762 303.213,1385.349 320.208,1385.349 "
   id="polygon93" />
&#10;	<path
   style="fill:#ffffff"
   d="m 242.471,1391.566 12.424,8.536 -4.956,-14.426 0.479,-0.328 h -6.548 c -0.488,2.065 -0.948,4.14 -1.399,6.218 z"
   id="path93" />
&#10;	<path
   style="fill:#ffffff"
   d="m 250.418,1385.349 12.497,-8.587 h -16.039 l -0.48,-1.398 c -0.888,3.31 -1.735,6.636 -2.526,9.984 h 6.548 z"
   id="path94" />
&#10;	<path
   style="fill:#ffffff"
   d="m 507.707,1414.528 h -16.039 l -4.956,-14.425 -4.956,14.425 h -16.039 l 12.976,8.915 -3.714,10.81 c 1.232,0.075 2.468,0.145 3.702,0.218 l 8.032,-5.518 9.464,6.502 c 0.911,0.048 1.821,0.097 2.733,0.144 l -4.177,-12.156 z"
   id="path95" />
&#10;	<path
   style="fill:#ffffff"
   d="m 437.916,1414.528 h -16.039 l -4.956,-14.425 -4.956,14.425 h -16.039 l 12.976,8.915 -1.991,5.795 c 2.843,0.247 5.697,0.482 8.548,0.72 l 1.463,-1.005 1.871,1.286 c 2.902,0.238 5.812,0.468 8.723,0.698 l -2.575,-7.493 z"
   id="path96" />
&#10;	<path
   style="fill:#ffffff"
   d="m 368.125,1414.528 h -16.039 l -4.956,-14.425 -4.956,14.425 h -16.039 l 11.24,7.723 c 5.999,0.686 12.014,1.357 18.054,2.004 l -0.279,-0.811 z"
   id="path97" />
&#10;	<path
   style="fill:#ffffff"
   d="m 282.296,1414.528 -4.956,-14.425 -4.762,13.859 c 7.353,1.042 14.738,2.056 22.161,3.037 l 3.596,-2.471 z"
   id="path98" />
&#10;</g>
  </g>
</svg>
