<svg id="Layer_1" enable-background="new 0 0 512 512" height="512" viewBox="0 0 512 512" width="512" xmlns="http://www.w3.org/2000/svg"><g><path d="m400.16 161.33c-.31 0-31.09-.62-57.37-19.84-22.88-16.73-30.79-53.07-32.05-66.59v-1.82h-55.74v240.46c0 28.91-23.52 52.42-52.42 52.42s-52.42-23.52-52.42-52.42 23.52-52.42 52.42-52.42h17.58v-55.74h-17.58c-59.64 0-108.16 48.52-108.16 108.16s48.52 108.16 108.16 108.16 108.16-48.52 108.16-108.16v-126.46c40.4 29.1 84.23 29.98 89.24 29.98h.02l-.03-55.74h.19z" fill="#00f7ef"/><path d="m417.58 178.56c-.31 0-31.09-.62-57.37-19.84-22.88-16.73-30.79-53.07-32.05-66.59v-1.82h-55.74v240.46c0 28.91-23.52 52.42-52.42 52.42s-52.42-23.52-52.42-52.42 23.52-52.42 52.42-52.42h17.58v-55.74h-17.58c-59.64 0-108.16 48.52-108.16 108.16s48.52 108.16 108.16 108.16 108.16-48.52 108.16-108.16v-126.45c40.4 29.1 84.23 29.98 89.24 29.98h.02l-.03-55.74z"/><g><g><g><path d="m313.46 90.31c4.02 16.58 12.73 39.04 29.33 51.18 1.13.82 2.26 1.6 3.4 2.36-12.28-18.01-17.08-41.44-18.04-51.71v-1.82h-14.69z" fill="#f00044"/></g><g><path d="m417.58 178.56c-.15 0-7.3-.15-17.59-2.41l.02 40.92c-.01 0-.01 0-.02 0-5.01 0-48.85-.88-89.24-29.98v126.45c0 59.64-48.52 108.16-108.16 108.16-25.21 0-48.43-8.67-66.84-23.18 19.84 24.63 50.23 40.42 84.25 40.42 59.64 0 108.16-48.52 108.16-108.16v-126.46c40.4 29.1 84.23 29.98 89.24 29.98h.02l-.03-55.74z" fill="#ff004f"/></g><g><path d="m220.17 261.11h-17.58c-28.91 0-52.42 23.52-52.42 52.42 0 18.99 10.14 35.64 25.3 44.84-4.99-8.02-7.89-17.48-7.89-27.61 0-28.91 23.52-52.42 52.42-52.42h17.58v-55.74h-17.41z" fill="#f00044"/></g></g></g></g></svg>